<?xml version="1.0" standalone="no"?><!DOCTYPE svg PUBLIC "-//W3C//DTD SVG 20010904//EN" "http://www.w3.org/TR/2001/REC-SVG-20010904/DTD/svg10.dtd"><svg xmlns="http://www.w3.org/2000/svg" version="1.0" width="512.000000pt" height="512.000000pt" viewBox="0 0 512.000000 512.000000" preserveAspectRatio="xMidYMid meet">

<g transform="translate(0.000000,512.000000) scale(0.100000,-0.100000)" fill="#00eeff" stroke="none">
<path d="M2526 4089 c-16 -96 -30 -176 -31 -177 -2 -2 -47 -7 -100 -12 -53 -4 -101 -13 -108 -18 -7 -5 -26 -13 -43 -16 l-31 -7 -89 155 c-49 85 -90 152 -92 148 -1 -4 13 -83 31 -175 24 -118 31 -170 23 -176 -6 -5 -40 -22 -76 -39 -36 -16 -80 -43 -99 -61 -19 -17 -39 -31 -44 -31 -7 0 -114 86 -271 219 -18 16 -18 15 -3 -14 9 -16 52 -88 95 -160 l80 -130 -26 -28 c-14 -15 -32 -25 -39 -23 -8 3 -10 -1 -6 -11 5 -12 3 -14 -7 -8 -8 5 -11 4 -6 -3 3 -6 2 -13 -4 -17 -6 -3 -26 -31 -45 -61 -19 -30 -39 -54 -44 -54 -10 0 -240 81 -296 104 -21 9 -40 15 -41 13 -2 -2 59 -54 137 -117 104 -84 138 -117 133 -129 -3 -9 -9 -24 -11 -33 -3 -10 -9 -18 -13 -18 -7 0 -21 -41 -49 -147 l-12 -43 -182 -2 -182 -3 170 -59 171 -59 -1 -138 0 -138 -160 -57 c-88 -31 -163 -60 -167 -63 -5 -4 73 -5 172 -3 l180 4 10 -26 c5 -15 10 -37 10 -50 0 -12 18 -58 39 -103 l39 -80 -138 -114 c-76 -63 -137 -115 -135 -117 1 -2 76 24 165 58 89 34 167 59 174 57 7 -3 20 -21 29 -40 9 -19 44 -61 77 -93 33 -32 60 -64 60 -69 0 -10 -18 -41 -128 -227 -28 -49 -50 -88 -48 -88 2 0 64 52 137 115 74 63 139 115 146 115 7 0 28 -14 47 -30 18 -17 68 -46 110 -65 72 -32 75 -36 70 -62 -25 -134 -60 -333 -59 -333 2 0 42 70 90 155 49 86 91 157 94 159 3 2 33 -5 66 -15 32 -11 86 -21 120 -23 33 -2 65 -4 71 -5 6 -1 23 -79 40 -180 16 -99 30 -178 32 -177 1 2 16 81 32 176 17 96 32 176 35 178 2 3 42 8 88 12 46 5 107 16 135 26 28 10 53 16 55 14 2 -3 44 -74 92 -158 48 -84 89 -151 91 -150 1 2 -13 80 -32 173 -19 94 -34 172 -34 175 0 3 32 21 71 40 39 18 89 48 112 67 23 18 46 33 50 33 5 0 63 -46 130 -103 67 -56 130 -109 140 -116 10 -8 -25 57 -77 144 l-95 159 53 56 c30 31 68 80 86 108 l31 51 52 -20 c29 -12 99 -38 157 -59 58 -20 114 -41 125 -45 28 -11 20 -4 -129 115 -70 57 -130 109 -132 115 -3 6 9 40 26 76 16 35 35 90 41 122 l12 57 186 1 c118 0 179 4 166 9 -11 5 -89 33 -173 62 l-153 53 6 85 c3 47 2 107 -3 133 -12 58 -24 49 180 123 84 30 153 56 155 58 2 2 -79 1 -180 -2 l-184 -5 -8 29 c-4 16 -9 42 -11 57 -2 15 -20 60 -39 98 -19 39 -35 72 -35 74 0 2 61 54 135 116 75 61 134 113 132 115 -2 2 -73 -24 -160 -56 -86 -33 -161 -60 -166 -60 -6 0 -28 26 -49 58 -22 31 -60 77 -85 102 l-46 45 41 70 c100 171 138 238 135 241 -1 1 -62 -50 -136 -113 l-133 -116 -34 18 c-19 10 -34 21 -34 25 0 4 -13 13 -30 20 -16 7 -30 16 -30 20 0 4 -17 12 -38 18 -79 24 -77 17 -43 206 17 92 31 173 31 180 0 6 -15 -16 -33 -49 -78 -141 -140 -250 -146 -257 -3 -3 -33 2 -66 13 -33 10 -91 21 -129 24 -38 3 -71 7 -73 9 -2 2 -15 73 -29 157 -14 85 -28 162 -32 173 -5 12 -18 -43 -36 -155z m189 -204 c367 -55 669 -267 842 -590 200 -377 171 -832 -75 -1180 -170 -242 -408 -396 -707 -461 -109 -23 -312 -23 -428 0 -401 79 -733 368 -861 751 -117 348 -54 741 165 1035 140 188 329 324 560 401 164 55 333 70 504 44z"/>
<path d="M2400 3817 c-16 -8 -25 -21 -25 -37 0 -20 7 -26 37 -35 46 -13 52 -19 34 -34 -11 -9 -17 -8 -30 4 -11 11 -21 13 -32 7 -14 -8 -14 -10 1 -25 27 -27 96 -16 109 18 8 23 -11 55 -34 55 -26 0 -50 10 -50 22 0 5 15 6 35 2 39 -7 48 8 16 26 -25 13 -30 13 -61 -3z"/>
<path d="M2530 3760 l0 -70 43 0 c60 0 87 22 87 69 0 51 -24 71 -83 71 l-47 0 0 -70z m85 0 c0 -29 -4 -36 -22 -38 -21 -3 -23 1 -23 38 0 37 2 41 23 38 18 -2 22 -9 22 -38z"/>
<path d="M2721 3784 c-36 -45 -23 -94 28 -112 41 -14 69 -5 86 29 21 39 19 65 -7 89 -32 29 -81 27 -107 -6z m87 -27 c2 -10 -4 -29 -13 -43 -13 -20 -19 -22 -35 -14 -22 12 -25 32 -9 61 13 25 52 22 57 -4z"/>
<path d="M2275 3790 c-3 -5 2 -37 11 -70 13 -46 21 -60 35 -60 23 0 23 5 2 80 -15 56 -33 74 -48 50z"/>
<path d="M2195 3770 c-4 -6 -4 -25 0 -43 l6 -32 -25 28 c-20 22 -30 26 -44 18 -14 -7 -17 -19 -14 -48 l3 -38 -21 32 c-13 20 -27 30 -36 26 -8 -3 -14 -8 -14 -11 0 -11 72 -112 79 -112 24 1 34 21 28 60 l-5 42 32 -31 c42 -40 70 -34 61 13 -20 99 -33 123 -50 96z"/>
<path d="M2890 3713 c-14 -31 -26 -60 -28 -64 -2 -3 4 -9 12 -12 11 -4 21 7 36 40 24 56 33 53 18 -5 -8 -33 -8 -46 1 -55 10 -9 20 -3 47 27 38 44 40 44 18 -9 -11 -26 -12 -41 -5 -48 13 -13 13 -14 44 57 29 62 28 71 -3 79 -15 4 -27 -3 -42 -24 -29 -39 -38 -37 -27 9 7 30 5 39 -8 50 -28 20 -37 14 -63 -45z"/>
<path d="M2413 3615 c-195 -35 -354 -122 -487 -267 -150 -161 -226 -357 -226 -583 0 -180 45 -331 143 -477 132 -198 321 -322 561 -370 217 -43 460 11 656 145 149 103 283 296 331 480 130 493 -198 997 -699 1072 -116 18 -182 18 -279 0z m362 -33 c307 -85 535 -322 606 -629 18 -79 21 -113 16 -221 -6 -142 -22 -213 -72 -319 -47 -101 -94 -167 -186 -263 -65 -68 -203 -148 -331 -192 -88 -30 -101 -31 -243 -32 -170 0 -223 11 -362 74 -105 49 -156 84 -240 168 -81 80 -136 160 -180 262 -53 124 -66 189 -66 340 0 116 4 147 27 222 95 317 322 528 651 604 84 19 288 12 380 -14z"/>
<path d="M2521 3484 c0 -11 3 -14 6 -6 3 7 2 16 -1 19 -3 4 -6 -2 -5 -13z"/>
<path d="M2330 3450 c0 -5 4 -10 10 -10 5 0 15 -20 21 -45 6 -25 17 -45 24 -45 7 0 17 -15 23 -32 l10 -33 1 43 c1 36 -5 51 -36 88 -37 43 -53 54 -53 34z"/>
<path d="M2675 3427 c-20 -25 -36 -59 -31 -64 5 -5 46 56 46 70 0 10 -3 8 -15 -6z"/>
<path d="M2321 3353 c-1 -33 5 -48 25 -68 31 -31 45 -26 15 6 -11 12 -25 41 -30 63 l-9 41 -1 -42z"/>
<path d="M2171 3350 c0 -8 4 -24 9 -35 l9 -20 0 20 c0 11 -4 27 -9 35 -9 13 -10 13 -9 0z"/>
<path d="M3120 3284 c0 -8 5 -12 10 -9 6 4 8 11 5 16 -9 14 -15 11 -15 -7z"/>
<path d="M3110 3221 c-8 -5 -32 -11 -52 -15 -21 -4 -38 -11 -38 -17 0 -6 7 -6 19 1 11 5 28 10 38 10 11 0 28 7 39 15 21 16 18 19 -6 6z"/>
<path d="M2950 3214 c-16 -5 -54 -63 -46 -71 8 -8 44 20 60 49 17 28 16 30 -14 22z"/>
<path d="M2140 3203 c0 -13 80 -87 80 -75 0 7 -9 20 -20 30 -11 9 -29 25 -40 35 -11 9 -20 14 -20 10z"/>
<path d="M2146 3065 c-3 -8 -15 -15 -26 -15 -19 0 -18 -2 8 -27 16 -16 41 -38 55 -50 15 -13 27 -30 27 -38 0 -8 8 -15 19 -15 10 0 32 -7 47 -15 24 -12 26 -15 9 -16 -11 -1 -3 -6 20 -13 l40 -13 -53 -17 c-51 -17 -56 -17 -98 -1 -49 18 -65 14 -47 -13 7 -10 22 -16 39 -15 l29 2 -26 -14 c-32 -17 -42 -40 -25 -54 9 -7 26 -3 60 14 26 13 73 29 104 35 111 21 192 46 192 60 0 4 -32 10 -72 13 l-72 6 -63 63 c-35 34 -65 69 -68 78 -5 15 -67 60 -84 60 -5 0 -11 -7 -15 -15z m29 -15 c-3 -5 1 -10 9 -10 9 0 16 -4 16 -10 0 -14 -13 -13 -28 2 -15 15 -15 28 -1 28 5 0 7 -4 4 -10z"/>
<path d="M2946 2995 c-22 -19 -45 -35 -53 -35 -7 0 -13 -4 -13 -10 0 -5 -5 -10 -11 -10 -7 0 -34 -14 -62 -31 -44 -27 -57 -30 -109 -27 -56 3 -77 -6 -78 -34 0 -9 56 -25 115 -33 72 -9 146 -34 178 -61 31 -26 25 -33 -7 -9 -13 10 -23 11 -31 5 -7 -6 -35 -1 -80 15 -52 18 -71 21 -77 12 -5 -8 -8 -8 -8 -1 0 16 -81 28 -90 13 -9 -14 -50 9 -50 28 0 7 -4 13 -10 13 -5 0 -10 -8 -10 -17 0 -19 78 -80 95 -75 6 2 6 0 2 -4 -5 -5 7 -14 25 -21 l33 -13 -38 6 c-21 3 -45 8 -53 11 -8 3 -14 0 -14 -6 0 -6 -16 -11 -35 -11 -19 0 -35 4 -35 9 0 6 -12 6 -32 0 -51 -14 -67 -9 -28 9 l35 17 -44 3 c-36 3 -42 6 -38 22 10 39 -57 28 -93 -15 -12 -14 -12 -18 1 -26 24 -17 -113 -5 -148 13 -43 22 -50 7 -21 -41 53 -89 159 -146 316 -172 l69 -11 16 -152 c8 -83 13 -153 10 -156 -2 -3 -11 3 -18 13 -28 39 -142 48 -270 22 -41 -9 -89 -22 -107 -30 -39 -17 -28 -19 25 -4 90 25 169 37 195 30 22 -6 13 -9 -41 -14 -118 -11 -102 -23 26 -19 122 4 124 4 152 -22 34 -31 34 -31 91 -5 78 35 153 43 293 30 154 -14 168 -14 155 -2 -16 17 -215 44 -279 38 -69 -7 -151 -32 -172 -53 -25 -25 -33 -15 -34 44 0 31 -6 107 -13 168 l-12 111 60 6 c136 13 279 80 328 153 19 29 38 44 67 53 23 6 41 16 41 21 0 12 -17 13 -24 1 -3 -5 -17 -11 -31 -13 -30 -6 -35 17 -5 25 11 3 20 13 20 22 0 14 8 16 39 13 l39 -3 -22 26 c-11 15 -36 30 -53 33 -37 8 -38 9 -20 36 10 17 9 22 -3 30 -12 7 -11 13 10 34 13 15 32 26 42 26 10 0 18 5 18 11 0 12 -93 1 -98 -12 -7 -18 -20 -8 -15 10 3 11 13 21 24 24 10 3 19 10 19 16 0 18 -13 12 -54 -24z m-106 -124 c0 -4 -11 -6 -25 -3 -14 2 -25 6 -25 8 0 2 11 4 25 4 14 0 25 -4 25 -9z m-128 -108 c36 -11 7 -21 -34 -12 -49 12 -60 17 -53 29 3 5 20 4 38 -2 17 -5 40 -12 49 -15z m-132 -87 c0 -2 -7 -6 -15 -10 -8 -3 -15 -1 -15 4 0 6 7 10 15 10 8 0 15 -2 15 -4z"/>
<path d="M2105 2180 c-3 -5 -2 -10 4 -10 5 0 13 5 16 10 3 6 2 10 -4 10 -5 0 -13 -4 -16 -10z"/>
<path d="M1680 3349 c0 -6 7 -17 15 -25 16 -16 19 -7 9 20 -7 18 -24 22 -24 5z"/>
<path d="M3420 3333 c-10 -28 -17 -33 -46 -33 -41 0 -44 -13 -8 -36 25 -17 27 -30 7 -80 -6 -16 -3 -15 24 4 17 12 34 22 38 22 4 0 21 -10 38 -22 27 -19 30 -20 24 -4 -20 50 -18 63 7 80 14 9 26 22 26 28 0 7 -14 -1 -30 -17 -23 -22 -29 -36 -25 -52 6 -26 2 -28 -25 -11 -15 10 -22 10 -32 0 -19 -19 -29 -14 -22 13 5 19 0 30 -17 45 l-24 19 31 1 c26 0 33 5 39 28 l7 27 10 -27 c8 -22 16 -28 36 -27 21 1 23 3 6 6 -11 2 -28 18 -37 36 l-15 32 -12 -32z"/>
<path d="M1670 3311 c0 -5 -10 -12 -22 -14 -20 -4 -19 -4 5 -6 18 -1 27 4 27 14 0 8 -2 15 -5 15 -3 0 -5 -4 -5 -9z"/>
<path d="M1596 3292 c-3 -5 9 -16 25 -26 22 -13 28 -23 23 -34 -3 -10 -9 -28 -12 -41 l-5 -24 31 23 c29 22 32 22 56 6 35 -23 39 -21 32 18 -6 29 -3 37 19 54 34 27 32 32 -17 31 -30 -2 -35 -3 -15 -6 32 -5 34 -14 7 -31 -17 -10 -19 -16 -9 -33 13 -26 5 -36 -16 -19 -12 10 -21 10 -41 1 -25 -11 -26 -10 -20 14 5 18 1 28 -14 37 -11 7 -20 18 -20 25 0 14 -16 17 -24 5z"/>
<path d="M3540 2831 c-48 -19 -66 -32 -68 -47 -3 -23 -1 -24 86 -55 l53 -18 -3 21 c-2 15 -13 24 -38 31 -52 13 -55 22 -10 36 39 11 56 29 48 49 -1 5 -32 -3 -68 -17z"/>
<path d="M1494 2733 c4 -31 8 -58 9 -60 2 -1 34 0 71 4 52 5 66 9 61 20 -3 8 -5 32 -5 54 0 28 -4 39 -15 39 -11 0 -14 -8 -9 -35 5 -30 3 -35 -15 -35 -17 0 -21 6 -21 29 0 17 -4 33 -10 36 -6 4 -10 -8 -10 -29 0 -25 -4 -36 -15 -36 -10 0 -15 11 -15 35 0 26 -4 35 -16 35 -14 0 -16 -8 -10 -57z"/>
<path d="M3470 2660 c0 -12 7 -20 18 -20 9 0 41 -3 70 -6 47 -6 52 -5 52 13 0 17 -9 21 -52 27 -81 9 -88 8 -88 -14z"/>
<path d="M1577 2633 c-11 -3 -16 -10 -13 -20 3 -8 6 -21 6 -29 0 -8 7 -14 15 -14 8 0 15 7 15 15 0 22 18 18 25 -5 10 -30 -13 -52 -49 -48 -27 3 -31 7 -32 33 -2 58 -3 59 -19 45 -21 -18 -19 -63 6 -94 27 -34 77 -36 107 -3 26 28 27 48 6 93 -16 33 -27 37 -67 27z"/>
<path d="M3465 2580 c-21 -23 -24 -75 -7 -92 18 -18 37 5 24 29 -15 27 0 45 33 41 39 -4 54 -31 32 -56 -34 -38 -13 -58 23 -22 45 45 11 120 -53 120 -21 0 -41 -8 -52 -20z"/>
<path d="M1611 2441 c-48 -43 -52 -50 -42 -70 10 -18 20 -21 81 -21 63 0 70 2 70 20 0 11 -7 20 -15 20 -21 0 -36 34 -29 69 4 17 3 31 -2 31 -5 -1 -33 -22 -63 -49z m27 -54 c-29 -10 -37 1 -14 19 16 11 21 11 28 2 4 -8 0 -16 -14 -21z"/>
<path d="M3407 2413 c-16 -15 -4 -30 38 -51 40 -19 45 -25 39 -47 -4 -18 -2 -25 8 -25 20 0 70 117 53 124 -8 2 -20 -5 -27 -16 l-14 -21 -42 22 c-46 24 -46 24 -55 14z"/>
<path d="M1711 2311 c-9 -21 -17 -27 -35 -24 -13 3 -28 -2 -35 -11 -15 -18 -5 -52 28 -95 l18 -23 56 37 c38 25 54 42 50 52 -6 14 -17 14 -57 -2 -17 -8 -17 -7 -1 24 15 30 13 71 -4 71 -5 0 -14 -13 -20 -29z m-6 -81 c0 -22 -29 -18 -33 3 -3 14 1 18 15 15 10 -2 18 -10 18 -18z"/>
<path d="M3343 2288 c-28 -32 -35 -56 -21 -81 43 -82 149 -49 139 43 -3 23 -49 60 -75 60 -12 0 -32 -10 -43 -22z m68 -28 c23 -13 25 -48 3 -57 -23 -8 -64 14 -64 35 0 33 24 41 61 22z"/>
<path d="M1755 2146 c-34 -29 -38 -36 -26 -50 12 -14 17 -12 53 18 22 19 46 32 54 29 25 -9 15 -40 -23 -72 -32 -28 -35 -33 -22 -46 13 -13 20 -10 57 24 47 43 52 66 21 105 -28 36 -65 34 -114 -8z"/>
<path d="M3255 2169 c-4 -5 0 -18 9 -28 25 -27 19 -33 -22 -26 -28 4 -42 2 -51 -9 -14 -17 -4 -25 33 -28 20 -2 26 -8 26 -25 0 -12 9 -27 20 -33 17 -9 27 -5 63 29 l42 40 -45 45 c-44 46 -63 55 -75 35z m55 -104 c-9 -11 -16 -13 -23 -6 -7 7 -6 15 3 26 9 11 16 13 23 6 7 -7 6 -15 -3 -26z"/>
<path d="M1896 2029 c-32 -38 -33 -63 -1 -94 33 -34 77 -33 104 1 34 43 26 86 -20 109 -40 21 -54 19 -83 -16z m79 -20 c10 -16 -3 -56 -20 -63 -21 -8 -45 3 -45 21 0 41 47 72 65 42z"/>
<path d="M3115 2040 c-4 -6 0 -21 8 -33 8 -12 17 -44 21 -70 6 -40 10 -46 22 -36 8 6 14 24 14 40 0 32 3 34 32 18 16 -9 24 -8 36 5 14 14 13 16 -12 26 -15 5 -33 10 -41 10 -7 0 -22 11 -33 25 -21 27 -37 31 -47 15z"/>
<path d="M2055 1950 c-11 -17 5 -30 29 -24 14 3 27 -1 35 -10 11 -13 11 -20 -3 -41 -20 -30 -47 -32 -64 -5 -15 25 -32 26 -32 2 0 -24 27 -48 62 -57 62 -16 108 93 56 129 -25 18 -74 21 -83 6z"/>
<path d="M2541 1830 c-6 -18 -9 -35 -7 -37 2 -3 7 5 11 16 8 27 25 27 25 1 0 -16 7 -20 30 -20 36 0 37 -6 9 -29 -18 -15 -20 -21 -10 -37 11 -18 12 -18 6 2 -4 16 1 26 20 38 35 23 31 36 -10 36 -22 0 -35 5 -35 13 0 7 -6 21 -13 32 -13 17 -15 16 -26 -15z"/>
<path d="M2460 1792 c0 -2 11 -13 25 -24 22 -17 25 -25 19 -54 -7 -38 -3 -41 31 -18 23 15 27 15 50 0 27 -18 35 -20 35 -8 0 15 -71 35 -83 23 -19 -19 -27 -12 -21 19 5 22 2 31 -10 36 -21 8 -20 21 2 27 9 2 2 4 -15 4 -18 0 -33 -2 -33 -5z"/>
<path d="M3961 2162 c-2 -22 -99 -211 -143 -276 -189 -279 -453 -484 -761 -590 -454 -157 -940 -94 -1347 175 -109 72 -300 257 -374 361 -61 87 -138 220 -161 281 -10 26 -20 45 -22 43 -3 -2 -16 -49 -29 -103 -42 -164 -44 -173 -54 -173 -5 0 -66 34 -135 76 -69 42 -129 73 -132 70 -3 -3 26 -70 66 -148 151 -303 371 -550 653 -735 444 -292 980 -382 1498 -253 473 118 884 420 1150 845 47 76 152 287 145 293 -2 2 -64 -32 -137 -76 -73 -44 -134 -79 -136 -77 -1 1 -18 64 -37 141 -39 152 -43 165 -44 146z m-2697 -324 c22 -31 21 -51 -2 -43 -11 3 -30 -3 -46 -16 -19 -15 -31 -18 -38 -11 -7 7 1 17 24 33 21 15 32 30 30 42 -5 24 14 21 32 -5z m2623 -34 c28 -21 34 -23 39 -10 6 17 34 22 34 7 0 -5 -8 -18 -17 -30 l-18 -21 -42 28 c-24 15 -43 33 -43 40 0 18 9 15 47 -14z m-2577 -24 c0 -5 -7 -13 -16 -18 -10 -5 -14 -15 -10 -21 6 -9 11 -9 22 0 10 8 18 9 25 2 6 -6 -7 -21 -36 -42 -48 -34 -71 -35 -41 -2 20 23 4 40 -20 20 -8 -6 -18 -9 -22 -4 -4 4 11 22 33 41 40 33 65 43 65 24z m2570 -20 c44 -44 7 -94 -49 -66 -32 17 -44 40 -36 67 8 26 59 25 85 -1z m-2507 -63 c17 -26 7 -57 -18 -57 -8 0 -19 -9 -25 -20 -17 -32 -33 -24 -24 12 6 30 5 31 -10 19 -32 -27 -29 0 4 34 40 41 52 43 73 12z m2444 -9 c36 -34 25 -78 -21 -78 -24 0 -66 38 -66 60 0 42 50 53 87 18z m-2397 -44 c0 -7 -74 -74 -82 -74 -15 0 -8 14 24 47 28 29 58 43 58 27z m2325 -26 c33 -30 46 -58 25 -58 -5 0 -13 8 -19 18 -7 12 -13 14 -21 6 -8 -8 -7 -14 5 -24 18 -15 20 -30 2 -30 -16 0 -83 67 -75 76 4 3 15 1 27 -5 24 -13 37 2 16 19 -8 7 -15 16 -15 21 0 17 21 9 55 -23z m-2311 -10 c-3 -13 -12 -30 -18 -38 -8 -11 -4 -10 16 3 30 19 48 22 48 8 0 -10 -83 -61 -99 -61 -17 0 -13 13 15 64 27 48 50 63 38 24z m2234 -45 c2 -8 -5 -13 -17 -13 -25 0 -26 -8 -4 -32 21 -23 29 -23 36 3 3 12 10 18 16 14 18 -11 12 -44 -10 -55 -39 -22 -93 39 -75 86 7 18 47 16 54 -3z m-2129 -30 c1 -1 0 -7 -4 -13 -5 -8 -12 -7 -24 4 -10 9 -21 13 -24 10 -4 -4 1 -12 10 -19 9 -7 13 -17 9 -24 -6 -9 -11 -9 -22 0 -18 15 -32 3 -16 -13 30 -30 5 -37 -29 -9 l-24 20 39 40 c38 39 40 40 60 23 12 -9 23 -18 25 -19z m26 -56 c-6 -29 -6 -30 7 -13 8 10 20 17 26 15 14 -5 -49 -89 -63 -85 -5 1 -9 16 -7 32 2 24 1 26 -8 12 -12 -20 -30 -24 -30 -7 0 17 62 89 72 83 5 -3 6 -20 3 -37z m2048 14 c31 -32 32 -57 5 -75 -14 -8 -22 -7 -35 7 -16 16 -16 17 5 17 12 0 22 5 22 11 0 6 -9 8 -20 4 -25 -8 -50 10 -50 35 0 17 13 28 35 29 6 0 23 -13 38 -28z m-1973 -37 c0 -11 -63 -94 -72 -94 -15 0 -8 19 20 59 23 35 52 54 52 35z m1860 -20 c0 -14 8 -39 17 -55 22 -38 9 -49 -20 -17 -13 14 -34 29 -45 33 -12 3 -22 10 -22 14 0 16 13 20 33 10 14 -8 18 -8 12 0 -8 15 1 41 15 41 5 0 10 -12 10 -26z m-1791 -92 c-7 -34 -16 -52 -25 -52 -9 0 -14 7 -12 18 2 13 -3 16 -24 14 -16 -1 -28 1 -28 6 0 16 84 82 93 73 4 -4 3 -31 -4 -59z m1737 30 c6 -12 19 -29 29 -36 24 -17 3 -31 -24 -16 -28 14 -36 13 -21 -5 10 -11 10 -19 2 -27 -7 -7 -19 3 -41 38 -28 45 -29 50 -13 62 24 18 55 11 68 -16z m-1638 -39 c2 -13 -1 -23 -7 -23 -6 0 -11 5 -11 10 0 18 -29 11 -40 -9 -14 -27 -13 -31 11 -31 12 0 19 -5 17 -12 -3 -7 -15 -13 -28 -13 -34 0 -43 35 -19 74 15 26 25 32 47 29 19 -2 28 -9 30 -25z m1565 -21 c37 -38 41 -60 7 -42 -20 11 -30 4 -30 -22 0 -34 -18 -18 -29 26 -22 88 -7 99 52 38z m-1501 -38 c-4 -51 -11 -74 -23 -74 -5 0 -9 7 -9 15 0 15 -10 19 -44 15 -22 -2 -16 10 28 58 38 40 52 36 48 -14z m1423 6 c20 -39 19 -57 -4 -70 -33 -17 -41 -12 -62 37 -16 37 -17 48 -7 55 27 17 57 8 73 -22z m-1350 -2 c29 -13 32 -36 10 -78 -16 -32 -41 -38 -68 -17 -15 11 -14 16 5 60 11 26 22 47 24 47 2 0 15 -5 29 -12z m1269 -41 c9 -23 16 -46 16 -50 0 -13 -23 -7 -43 11 -19 16 -20 16 -8 -5 14 -28 14 -33 -2 -33 -14 0 -53 97 -43 107 3 4 17 -4 31 -17 14 -13 25 -18 25 -12 0 6 -4 14 -10 17 -15 9 -12 25 4 25 7 0 21 -19 30 -43z m-1164 -8 c0 -5 -12 -9 -27 -10 -28 0 -28 -1 -5 -11 30 -15 28 -32 -3 -26 -30 6 -33 -7 -4 -23 31 -16 9 -33 -24 -18 -32 14 -31 13 -11 71 15 45 16 46 45 36 16 -5 29 -14 29 -19z m1060 11 c24 -13 37 -75 20 -95 -7 -8 -21 -15 -31 -15 -38 0 -65 80 -37 108 15 15 24 15 48 2z m-1009 -37 c0 -27 1 -27 11 -7 9 19 14 20 44 11 24 -7 34 -16 34 -31 0 -20 0 -20 14 0 8 10 18 16 22 11 4 -4 -2 -21 -14 -37 -12 -16 -22 -36 -22 -44 0 -8 -4 -18 -10 -21 -6 -4 -10 11 -11 37 0 24 -4 52 -8 63 -7 16 -11 11 -22 -29 -8 -27 -20 -51 -28 -54 -9 -3 -11 2 -7 19 6 20 5 21 -4 7 -6 -10 -15 -18 -20 -18 -6 0 -10 8 -10 18 0 14 -2 15 -10 2 -5 -8 -12 -11 -15 -8 -6 6 -2 23 20 96 8 24 35 13 36 -15z m913 11 c25 -10 20 -37 -5 -29 -18 6 -20 3 -17 -21 3 -29 28 -47 28 -20 0 17 15 22 24 7 8 -13 -3 -38 -20 -45 -38 -15 -76 45 -56 89 12 26 20 29 46 19z m-69 -25 c4 -6 -2 -13 -14 -16 -12 -3 -21 -10 -21 -15 0 -5 9 -6 20 -3 14 5 20 2 20 -9 0 -9 -9 -16 -20 -16 -11 0 -20 -4 -20 -10 0 -5 11 -10 24 -10 37 0 40 -17 5 -25 -39 -9 -46 -1 -54 57 -7 43 -5 47 16 51 13 2 27 5 31 6 4 0 10 -4 13 -10z m-618 -17 c7 -4 11 -28 10 -57 -2 -48 -3 -50 -32 -50 -23 0 -31 5 -33 23 -2 12 1 22 7 22 6 0 11 -4 11 -10 0 -5 7 -10 16 -10 10 0 7 7 -12 23 -23 20 -25 26 -15 45 12 23 27 27 48 14z m529 -4 c5 -7 9 -19 10 -28 1 -8 5 -22 8 -31 7 -16 -16 -49 -34 -49 -15 0 -40 31 -34 42 4 6 10 6 17 -1 13 -13 27 -14 27 -2 0 5 -9 11 -20 14 -38 10 -39 67 -1 67 11 0 23 -6 27 -12z m-1084 -17 c-1 -7 8 -11 24 -9 15 2 29 -3 31 -9 3 -8 -4 -13 -16 -13 -17 0 -21 -6 -21 -36 0 -40 -23 -44 -28 -5 -3 18 -6 20 -18 10 -8 -6 -17 -9 -21 -6 -10 10 29 88 41 84 6 -3 10 -10 8 -16z m644 9 c8 0 14 -4 14 -10 0 -5 -9 -10 -20 -10 -11 0 -20 -4 -20 -10 0 -5 7 -10 15 -10 8 0 15 -7 15 -16 0 -11 -6 -15 -20 -11 -11 3 -20 1 -20 -3 0 -5 9 -12 20 -15 32 -10 23 -27 -12 -23 -33 3 -33 3 -29 53 4 59 8 68 28 61 8 -3 21 -6 29 -6z m956 -15 c6 -14 15 -25 19 -25 4 0 7 -9 6 -21 -1 -14 -7 -19 -19 -16 -10 3 -21 1 -24 -4 -10 -17 -24 1 -24 31 0 60 22 78 42 35z m-897 -5 c4 -11 11 -18 16 -14 5 3 7 9 4 14 -3 5 -1 11 5 15 16 10 23 -21 16 -70 -8 -47 -24 -60 -33 -25 -7 26 -23 26 -23 -1 0 -11 -4 -17 -10 -14 -11 7 -14 98 -3 108 12 12 22 7 28 -13z m85 -46 c0 -41 -4 -54 -15 -54 -16 0 -19 22 -9 82 9 54 24 36 24 -28z m89 34 c31 -54 -17 -111 -60 -72 -23 21 -24 52 -3 82 20 29 44 25 63 -10z m90 14 c7 -13 7 -22 0 -29 -7 -7 -7 -17 2 -31 19 -31 1 -41 -21 -12 l-20 25 0 -22 c0 -13 -4 -23 -9 -23 -13 0 -21 27 -21 71 0 37 2 39 30 39 18 0 33 -7 39 -18z m570 -26 c7 -8 13 -27 14 -43 2 -24 -2 -28 -23 -28 -27 0 -56 44 -46 71 7 18 40 18 55 0z m-1423 -42 c1 -62 -17 -89 -29 -43 -5 17 -11 20 -31 15 -14 -3 -26 -3 -26 1 0 13 64 73 75 70 5 -2 10 -21 11 -43z m1354 21 c6 -8 9 -23 5 -35 -5 -14 -2 -20 9 -20 27 0 18 -17 -15 -29 -42 -14 -41 -15 -34 12 18 61 18 63 4 50 -17 -17 -29 -16 -29 2 0 13 25 34 41 35 4 0 12 -7 19 -15z m-1289 -39 c0 -21 0 -21 11 2 6 12 15 22 20 22 11 0 1 -54 -14 -84 -10 -19 -11 -19 -24 -1 -8 10 -14 26 -15 34 0 10 -4 7 -9 -6 -13 -32 -34 -30 -26 2 16 62 26 78 41 65 8 -7 15 -22 16 -34z m1194 -28 c11 -24 12 -34 3 -45 -12 -15 -49 -14 -48 2 1 6 8 9 16 7 8 -2 14 2 14 8 0 5 -7 10 -15 10 -9 0 -12 6 -9 15 5 11 2 13 -10 9 -10 -4 -16 -1 -16 9 0 17 18 27 37 20 7 -3 19 -19 28 -35z m-1081 16 c22 -21 10 -37 -15 -21 -16 10 -21 9 -29 -3 -15 -23 -6 -35 23 -32 20 2 25 -1 21 -13 -13 -32 -74 -14 -74 22 0 56 40 81 74 47z m1002 -18 c20 -32 15 -70 -10 -74 -24 -5 -46 23 -46 59 0 24 10 36 32 38 4 1 15 -10 24 -23z m-954 -8 c-4 -25 25 -30 32 -5 3 14 9 18 15 12 13 -13 -8 -97 -23 -92 -6 2 -10 11 -8 20 4 25 -19 32 -25 8 -3 -12 -11 -20 -17 -18 -10 3 -10 21 -1 67 2 8 4 19 4 23 1 5 7 7 14 4 6 -2 11 -11 9 -19z m884 -8 c0 -8 4 -23 9 -32 19 -46 -36 -69 -56 -24 -17 37 -4 78 24 74 12 -2 22 -10 23 -18z m-758 0 c6 0 12 -6 12 -14 0 -9 -9 -12 -27 -9 -27 3 -27 3 -5 -8 30 -16 28 -29 -5 -30 -28 -1 -28 -1 -4 -8 26 -7 41 -31 19 -31 -39 1 -58 13 -58 39 0 52 11 73 34 67 11 -3 27 -6 34 -6z m86 -16 c26 -10 18 -27 -9 -22 -14 3 -25 1 -25 -3 0 -5 9 -9 20 -9 11 0 20 -4 20 -10 0 -5 -12 -10 -26 -10 -14 0 -23 -4 -19 -10 3 -5 15 -10 26 -10 10 0 19 -5 19 -11 0 -6 -16 -9 -37 -7 -38 3 -38 3 -35 43 2 22 6 43 9 48 5 9 35 9 57 1z m484 -47 c3 -45 -12 -66 -21 -29 -4 13 -5 11 -6 -5 -1 -27 -16 -30 -30 -5 -10 16 -10 16 -11 0 0 -17 -19 -26 -21 -10 0 4 -2 26 -5 50 -5 33 -3 42 10 42 8 0 19 -7 24 -17 9 -14 11 -14 21 6 19 34 36 20 39 -32z m-404 37 c26 -10 20 -53 -9 -60 -14 -3 -25 -12 -25 -20 0 -8 -7 -14 -16 -14 -13 0 -15 7 -10 31 3 17 6 40 6 50 0 19 23 25 54 13z m58 -41 c2 -21 8 -38 13 -38 6 0 11 17 13 38 4 52 22 46 22 -8 0 -39 -3 -45 -25 -51 -36 -9 -55 11 -55 57 0 53 28 54 32 2z m146 10 c2 -13 -1 -23 -7 -23 -8 0 -7 -6 1 -20 16 -26 3 -37 -20 -17 -23 21 -32 21 -32 2 0 -8 -4 -15 -9 -15 -9 0 -20 88 -11 96 2 3 20 4 40 2 28 -2 36 -8 38 -25z m82 -13 c26 -50 25 -53 -6 -46 -15 4 -32 2 -40 -5 -22 -18 -26 -6 -13 45 14 57 32 59 59 6z m215 10 c3 -5 2 -10 -4 -10 -5 0 -16 -3 -25 -6 -11 -4 -16 -1 -16 10 0 18 35 22 45 6z"/>
<path d="M3820 1746 c0 -20 27 -39 46 -32 15 6 15 8 -1 26 -21 23 -45 26 -45 6z"/>
<path d="M1336 1682 c-3 -6 -1 -14 5 -17 15 -10 25 3 12 16 -7 7 -13 7 -17 1z"/>
<path d="M3766 1683 c-10 -10 -7 -20 10 -37 21 -22 34 -20 34 4 0 20 -32 44 -44 33z"/>
<path d="M3568 1483 c7 -3 16 -2 19 1 4 3 -2 6 -13 5 -11 0 -14 -3 -6 -6z"/>
<path d="M3407 1373 c-4 -3 -7 -11 -7 -17 0 -6 5 -5 12 2 6 6 9 14 7 17 -3 3 -9 2 -12 -2z"/>
<path d="M3248 1285 c-8 -8 12 -55 23 -55 4 0 10 4 13 9 7 11 -27 55 -36 46z"/>
<path d="M1913 1230 c-9 -25 -9 -30 3 -30 15 0 35 39 27 53 -8 14 -19 7 -30 -23z"/>
<path d="M3075 1211 c-7 -13 12 -51 26 -51 14 0 7 52 -8 57 -6 2 -14 -1 -18 -6z"/>
<path d="M2305 1140 c3 -5 8 -10 11 -10 2 0 4 5 4 10 0 6 -5 10 -11 10 -5 0 -7 -4 -4 -10z"/>
<path d="M2828 1143 c7 -3 16 -2 19 1 4 3 -2 6 -13 5 -11 0 -14 -3 -6 -6z"/>
<path d="M2600 1100 c0 -20 5 -30 15 -30 10 0 15 10 15 30 0 20 -5 30 -15 30 -10 0 -15 -10 -15 -30z"/>
<path d="M2695 1130 c-3 -5 1 -10 9 -10 9 0 16 5 16 10 0 6 -4 10 -9 10 -6 0 -13 -4 -16 -10z"/>
<path d="M3280 1100 c0 -8 5 -22 10 -30 9 -13 10 -13 10 0 0 8 -5 22 -10 30 -9 13 -10 13 -10 0z"/>
<path d="M3038 995 c2 -14 8 -25 12 -25 4 0 5 11 2 25 -2 14 -8 25 -12 25 -4 0 -5 -11 -2 -25z"/>
<path d="M2970 966 c0 -9 5 -16 10 -16 6 0 10 4 10 9 0 6 -4 13 -10 16 -5 3 -10 -1 -10 -9z"/>
<path d="M2378 953 c7 -3 16 -2 19 1 4 3 -2 6 -13 5 -11 0 -14 -3 -6 -6z"/>
<path d="M2558 943 c7 -3 16 -2 19 1 4 3 -2 6 -13 5 -11 0 -14 -3 -6 -6z"/>
</g>
</svg>