<?xml version="1.0" standalone="no"?><!DOCTYPE svg PUBLIC "-//W3C//DTD SVG 20010904//EN" "http://www.w3.org/TR/2001/REC-SVG-20010904/DTD/svg10.dtd"><svg xmlns="http://www.w3.org/2000/svg" version="1.0" width="640.000000pt" height="640.000000pt" viewBox="0 0 640.000000 640.000000" preserveAspectRatio="xMidYMid meet">

<g transform="translate(0.000000,640.000000) scale(0.100000,-0.100000)" fill="#00eeff" stroke="none">
<path d="M2978 5763 c-40 -25 -48 -53 -60 -207 -6 -77 -15 -146 -22 -152 -6 -6 -58 -20 -116 -32 -118 -24 -263 -70 -359 -113 -36 -16 -67 -26 -70 -21 -28 40 -208 245 -222 252 -34 19 -94 11 -135 -16 -159 -108 -343 -248 -352 -270 -22 -48 -13 -75 68 -205 44 -70 82 -133 85 -141 3 -7 -28 -50 -68 -95 -79 -88 -182 -227 -229 -311 -20 -35 -34 -50 -42 -44 -6 5 -81 26 -166 47 -167 41 -195 41 -234 2 -27 -27 -156 -416 -156 -468 1 -58 26 -77 191 -144 l154 -62 -2 -49 c-7 -171 -7 -407 0 -451 7 -48 6 -53 -11 -53 -34 0 -303 -108 -328 -131 -45 -42 -42 -69 36 -300 73 -221 90 -251 145 -265 14 -3 90 10 176 31 83 20 161 35 172 33 13 -2 39 -34 74 -93 64 -106 138 -206 227 -306 57 -64 63 -75 48 -82 -25 -11 -182 -266 -182 -294 0 -15 -6 -23 -17 -23 -18 0 -193 29 -308 50 -168 32 -538 130 -707 189 -32 11 -58 18 -58 15 0 -3 43 -98 95 -211 52 -113 95 -211 94 -217 0 -9 -229 -215 -330 -299 -12 -10 -20 -19 -18 -21 7 -7 359 -104 489 -135 329 -79 671 -131 945 -144 l50 -2 5 -79 5 -79 40 -14 c94 -34 345 -104 472 -132 322 -70 539 -93 883 -93 294 -1 444 12 720 58 152 26 412 87 540 127 l75 23 3 82 3 82 68 0 c152 0 484 42 751 96 218 44 642 154 641 167 0 4 -79 77 -175 163 l-174 155 75 162 c110 237 123 267 118 267 -2 0 -39 -11 -82 -24 -295 -92 -614 -166 -863 -201 -63 -9 -125 -18 -137 -20 -20 -5 -21 -2 -17 47 5 53 5 53 -85 188 l-90 134 35 41 c117 136 195 242 279 380 9 15 23 13 161 -19 182 -43 203 -44 243 -10 32 26 28 17 132 354 34 111 35 132 12 170 -18 31 -35 40 -203 103 l-115 43 5 90 c6 112 6 290 0 369 l-4 60 153 61 c168 67 190 84 191 147 0 33 -113 389 -141 443 -14 26 -60 54 -91 54 -12 -1 -86 -16 -163 -35 -77 -19 -143 -31 -147 -27 -3 4 -24 37 -45 74 -53 95 -158 242 -221 310 l-53 57 88 133 c74 112 88 139 88 173 0 24 -8 50 -19 65 -10 14 -100 82 -199 153 -157 110 -186 127 -220 127 -21 0 -46 -4 -56 -9 -9 -5 -61 -61 -116 -124 l-98 -115 -96 43 c-106 47 -285 107 -373 125 -32 6 -58 12 -58 13 0 1 -5 74 -10 162 -14 241 -5 235 -330 235 -201 -1 -239 -3 -262 -17z m388 -593 l-6 -77 50 -7 c48 -6 51 -8 48 -34 -3 -25 -6 -27 -43 -24 -108 7 -136 14 -131 30 2 10 8 55 11 102 4 47 9 88 11 91 2 3 17 4 35 1 l32 -5 -7 -77z m-140 -23 c24 -54 44 -100 44 -103 0 -2 -18 -4 -40 -4 -29 0 -40 4 -40 15 0 11 -11 15 -39 15 -30 0 -40 -4 -44 -20 -4 -15 -14 -20 -36 -20 -17 0 -31 5 -31 11 0 6 14 56 31 111 l32 99 39 -3 39 -3 45 -98z m-255 62 c12 -12 17 -24 13 -29 -15 -13 -64 -21 -64 -10 0 13 -37 13 -45 1 -3 -5 19 -13 49 -16 65 -8 89 -29 84 -76 -4 -39 -37 -66 -95 -75 -36 -5 -45 -3 -68 20 -29 29 -27 41 11 50 19 5 30 2 39 -11 11 -14 18 -16 31 -8 28 18 18 29 -34 40 -74 15 -95 40 -76 90 17 43 120 59 155 24z m623 -5 c-7 -51 -38 -195 -43 -198 -3 -2 -19 -2 -35 1 -27 5 -28 8 -22 47 4 22 14 71 22 107 l15 66 32 -7 c18 -4 31 -11 31 -16z m112 -14 c9 0 20 -23 31 -60 9 -33 20 -60 23 -60 4 0 13 20 19 45 6 25 15 45 19 45 25 -1 52 -15 52 -27 0 -14 -50 -183 -56 -191 -1 -2 -16 -1 -33 3 -27 6 -32 13 -48 66 -19 63 -24 64 -43 6 -11 -35 -15 -38 -39 -32 -14 4 -28 8 -30 11 -4 3 32 132 51 183 5 15 13 21 24 17 9 -3 22 -6 30 -6z m-947 -115 l72 -85 -26 -10 c-34 -13 -52 -13 -57 1 -3 9 -13 9 -40 0 -25 -8 -35 -17 -32 -26 5 -12 -40 -45 -61 -45 -3 0 -5 52 -5 115 0 111 1 116 23 125 43 17 55 10 126 -75z m1255 -9 c19 -8 44 -24 55 -35 21 -21 29 -71 12 -71 -24 0 -61 21 -61 35 0 19 -46 31 -64 16 -8 -7 -19 -25 -26 -42 -11 -25 -10 -32 5 -49 19 -21 55 -27 55 -10 0 5 -7 13 -15 18 -18 10 -10 42 10 42 14 0 85 -39 85 -46 0 -3 -9 -23 -20 -44 -16 -32 -26 -40 -48 -40 -38 1 -106 33 -126 61 -33 48 -11 135 42 163 34 19 54 20 96 2z m-1564 -86 c19 -38 35 -70 37 -70 2 0 22 9 44 21 42 21 69 14 69 -16 0 -14 -138 -90 -147 -81 -4 3 -28 45 -54 93 l-47 88 27 17 c14 9 29 17 32 17 3 1 20 -30 39 -69z m-105 -97 c47 -31 85 -59 85 -63 0 -4 -12 -15 -26 -25 -18 -12 -29 -13 -38 -6 -19 16 -69 -25 -63 -50 3 -12 -2 -23 -15 -30 -11 -6 -38 -27 -59 -46 -38 -35 -41 -35 -78 -24 -21 6 -41 11 -45 11 -12 0 -6 -38 9 -50 20 -17 19 -33 -5 -55 -21 -19 -22 -18 -97 58 -76 75 -77 76 -58 97 23 25 33 25 61 -1 l22 -20 -6 46 c-4 41 -1 50 24 76 15 16 31 29 36 29 4 0 8 -24 8 -53 l0 -53 67 -16 c38 -9 70 -15 72 -13 2 3 -9 50 -25 106 l-28 101 25 19 c13 10 30 19 37 19 7 0 50 -25 97 -57z m1908 33 l29 -23 -28 -99 c-15 -55 -30 -103 -34 -107 -13 -15 -61 24 -55 43 8 26 -41 63 -65 50 -13 -7 -25 -4 -45 11 l-26 21 93 64 c51 34 95 63 98 63 3 0 18 -10 33 -23z m-813 -62 c295 -51 554 -186 765 -398 214 -215 346 -471 391 -759 20 -124 14 -383 -11 -494 -123 -552 -539 -962 -1102 -1085 -143 -31 -425 -31 -570 0 -589 127 -1028 581 -1118 1157 -34 216 -7 488 69 688 193 506 663 859 1206 906 116 10 256 5 370 -15z m1000 -111 c0 -8 -11 -31 -25 -51 -14 -20 -25 -40 -25 -43 0 -4 22 5 50 20 l49 26 32 -31 32 -32 -73 -68 c-76 -72 -96 -81 -114 -51 -9 15 -4 24 34 58 49 44 47 45 -22 9 -46 -23 -48 -23 -67 -6 -20 18 -20 19 8 60 47 70 47 72 -4 28 l-49 -43 -20 21 -21 21 80 73 80 74 28 -26 c15 -14 27 -32 27 -39z m-2671 -551 l45 -42 -18 -36 -17 -37 -112 8 c-62 4 -114 8 -116 10 -11 11 18 60 37 63 13 2 29 17 38 34 14 27 14 32 0 46 -13 14 -13 18 0 45 l16 29 41 -39 c23 -22 62 -58 86 -81z m3031 18 c11 -27 10 -33 -24 -80 -20 -27 -36 -52 -36 -55 0 -3 22 4 50 15 49 19 50 19 60 0 5 -10 10 -25 10 -32 0 -12 -170 -88 -197 -88 -6 0 -14 14 -18 31 -6 25 0 40 29 85 20 30 34 54 32 54 -2 0 -25 -9 -51 -20 -26 -11 -48 -20 -50 -20 -4 0 -26 63 -23 65 10 7 185 74 194 75 6 0 17 -13 24 -30z m-3136 -164 c18 -8 41 -24 50 -37 35 -50 6 -148 -50 -169 -35 -14 -34 -14 -34 24 0 26 5 36 20 41 24 8 27 47 5 65 -9 7 -32 13 -53 14 -31 1 -37 -2 -40 -22 -2 -13 2 -30 9 -38 9 -12 9 -20 -1 -39 -30 -55 -76 -5 -67 72 9 85 79 123 161 89z m3215 -80 c19 -20 26 -38 29 -84 4 -55 2 -60 -27 -84 -70 -60 -163 -41 -190 39 -23 66 -7 112 49 141 55 28 103 24 139 -12z m-3264 -176 c33 -18 62 -34 63 -36 2 -1 1 -20 -3 -42 l-6 -39 -92 -18 c-51 -10 -102 -20 -114 -23 -20 -4 -23 0 -23 27 0 24 6 34 25 43 29 13 35 60 11 87 -8 10 -12 29 -9 49 l5 33 42 -24 c22 -13 68 -39 101 -57z m3329 -62 c3 -17 3 -35 -1 -39 -11 -9 -202 -31 -214 -24 -5 4 -9 19 -9 35 0 32 1 33 135 49 39 5 73 9 76 10 4 0 9 -13 13 -31z m-154 -114 l0 -36 83 3 82 4 0 -35 0 -35 -77 -3 -78 -3 0 -34 c0 -25 -5 -35 -20 -40 -11 -3 -24 -4 -29 -1 -11 7 -26 190 -17 205 4 6 18 11 32 11 21 0 24 -4 24 -36z m-3130 -69 c0 -35 -5 -75 -11 -89 -27 -59 -137 -72 -186 -23 -19 18 -26 38 -30 85 -9 94 -11 92 117 92 l110 0 0 -65z m3306 -101 c-3 -9 -6 -24 -6 -34 0 -10 -9 -22 -20 -25 -25 -8 -28 -69 -4 -83 11 -6 14 -20 12 -45 l-3 -36 -105 49 c-94 44 -105 52 -108 77 -1 15 2 34 6 41 9 13 179 69 216 71 13 1 16 -4 12 -15z m-3301 -106 c3 -35 8 -83 11 -108 2 -25 8 -60 13 -77 9 -32 8 -33 -42 -60 l-51 -28 60 -3 61 -3 22 -74 23 -74 -22 -36 -22 -35 41 0 c37 0 43 -3 58 -35 9 -19 15 -37 12 -39 -2 -2 -36 2 -75 8 -56 10 -77 10 -95 1 -52 -27 -65 -27 -77 0 -17 37 -16 40 28 60 28 13 50 33 71 68 16 27 29 51 27 53 -2 1 -41 -8 -88 -22 -86 -25 -93 -24 -104 12 -6 19 1 23 61 42 l68 22 -71 -5 c-59 -4 -73 -2 -78 11 -12 32 -5 45 49 75 30 17 55 32 55 34 0 2 -28 -5 -62 -16 -34 -10 -63 -17 -64 -16 -1 1 -5 14 -9 29 -7 26 -5 27 84 54 50 15 88 31 85 36 -3 5 -9 30 -12 55 -10 69 -34 70 -31 2 3 -49 1 -54 -19 -57 -22 -3 -27 8 -34 68 -2 15 -10 26 -22 28 -17 4 -18 -1 -12 -56 6 -56 5 -60 -16 -65 -12 -4 -24 -4 -26 -2 -2 2 -10 44 -16 94 -9 65 -10 91 -2 92 6 0 49 7 96 14 47 7 92 13 101 14 13 1 18 -13 24 -61z m3135 -123 c0 -14 -9 -29 -20 -35 -22 -12 -27 -52 -7 -67 22 -18 68 -24 83 -12 19 15 18 55 -1 63 -14 5 -14 9 0 36 19 37 28 37 54 4 41 -52 14 -152 -46 -175 -41 -15 -103 -1 -136 33 -27 26 -29 34 -25 79 5 51 27 85 63 99 26 10 35 4 35 -25z m-13 -206 c72 -32 89 -57 78 -115 -7 -40 -62 -104 -89 -104 -18 0 -146 49 -160 61 -7 6 10 69 19 69 1 0 28 -11 59 -25 69 -31 102 -32 111 -5 9 29 2 35 -75 66 -55 21 -69 31 -64 43 3 9 9 24 11 34 6 21 18 18 110 -24z m-65 -231 c32 -23 48 -48 48 -78 0 -20 -56 -140 -65 -140 -3 0 -47 21 -97 46 -51 26 -87 39 -80 31 11 -13 8 -22 -18 -58 -21 -29 -27 -46 -20 -53 7 -7 14 -4 24 9 43 61 50 67 70 52 19 -14 18 -15 -8 -50 -26 -34 -30 -67 -8 -67 5 0 23 20 41 45 28 40 34 43 51 32 11 -6 20 -15 20 -18 0 -9 -100 -149 -106 -149 -9 0 -163 110 -170 121 -6 10 30 67 84 135 13 16 38 56 55 89 18 33 43 65 57 73 31 16 85 7 122 -20z m-2818 -133 c61 -46 75 -133 29 -177 -62 -57 -106 -62 -157 -17 -45 39 -60 89 -41 135 26 62 121 95 169 59z m160 -194 c51 -51 57 -62 46 -75 -18 -23 -33 -20 -65 14 -19 20 -32 27 -39 20 -7 -7 0 -20 20 -41 28 -30 28 -31 10 -45 -18 -13 -23 -11 -46 11 -33 31 -37 31 -72 -2 l-28 -27 -25 24 -26 24 78 78 c43 43 80 78 83 78 3 0 32 -27 64 -59z m2335 -87 c68 -61 63 -114 -19 -188 l-42 -38 -45 44 c-25 23 -59 61 -76 82 l-31 39 53 49 c67 62 103 65 160 12z m-2126 -101 c47 -36 57 -50 57 -74 0 -33 -31 -69 -60 -69 -16 0 -20 -7 -21 -32 -1 -18 -4 -43 -7 -55 l-7 -23 -31 25 c-29 23 -31 27 -27 82 l4 58 -31 -37 -32 -38 -29 21 -28 20 66 89 c37 49 72 86 77 83 6 -4 37 -26 69 -50z m1961 -55 c32 -45 60 -86 62 -92 2 -6 -7 -19 -21 -29 -23 -17 -26 -16 -90 8 -68 25 -69 24 -26 -34 l25 -33 -23 -19 c-13 -11 -26 -19 -30 -19 -4 0 -35 40 -69 89 l-62 90 27 19 c27 20 27 20 91 -4 66 -25 68 -24 25 34 l-24 33 23 19 c13 11 26 19 29 20 3 0 32 -37 63 -82z m-1789 -60 c75 -42 86 -56 62 -76 -9 -8 -24 -4 -56 13 -40 23 -61 25 -61 6 0 -4 18 -17 40 -30 41 -23 52 -47 25 -57 -8 -3 -30 4 -50 16 -34 21 -55 20 -55 -3 0 -7 20 -23 45 -36 50 -26 51 -29 32 -56 -13 -17 -18 -16 -90 25 -43 24 -77 48 -77 53 0 11 100 187 106 187 2 0 38 -19 79 -42z m1585 -93 c43 -38 79 -73 79 -77 1 -4 -13 -15 -30 -23 -24 -13 -34 -14 -45 -4 -22 18 -74 -7 -74 -36 0 -23 -47 -53 -60 -38 -4 4 -13 55 -19 113 -11 103 -11 105 11 122 13 10 31 17 41 15 10 -1 53 -33 97 -72z m-1389 2 c38 -25 54 -77 24 -77 -25 0 -55 19 -55 35 0 8 -9 15 -20 15 -30 0 -24 -15 19 -43 48 -32 60 -70 33 -106 -47 -63 -182 -20 -182 59 0 28 2 30 28 24 38 -9 42 -13 42 -35 0 -22 22 -34 47 -25 14 6 8 15 -30 52 -27 26 -47 54 -47 66 0 58 78 77 141 35z m164 -51 c78 -23 94 -36 77 -64 -6 -9 -16 -10 -33 -4 -56 21 -79 23 -79 7 0 -9 17 -20 45 -27 37 -10 45 -16 43 -33 -3 -20 -12 -22 -83 -14 -52 7 -37 -23 20 -39 28 -8 51 -15 53 -17 1 -1 -2 -14 -8 -29 -8 -21 -13 -25 -27 -18 -10 5 -48 17 -85 27 -38 10 -68 23 -68 29 -1 18 55 206 60 206 3 0 41 -11 85 -24z m949 -77 c15 -56 23 -105 19 -109 -4 -4 -20 -10 -35 -14 -25 -6 -28 -3 -34 29 -8 42 -16 48 -53 40 -27 -6 -29 -8 -20 -38 5 -18 9 -37 9 -43 0 -14 -57 -37 -64 -26 -8 15 -57 204 -53 208 2 3 18 9 35 14 30 8 32 7 38 -26 6 -35 12 -38 52 -27 21 5 23 10 17 41 -7 38 4 52 41 52 18 0 24 -14 48 -101z m-3092 27 c313 -104 769 -194 1138 -226 74 -7 136 -13 138 -14 1 -2 -20 -44 -48 -94 l-50 -91 0 -225 c0 -124 -3 -227 -7 -229 -25 -15 -428 25 -653 64 -204 35 -668 150 -717 178 -10 5 31 47 146 151 89 79 161 145 161 146 0 1 -38 81 -85 178 -46 97 -80 176 -75 176 5 0 29 -6 52 -14z m2364 6 c11 -7 66 -223 59 -231 -2 -2 -20 0 -40 3 -26 5 -35 12 -35 26 0 17 -7 20 -40 20 -26 0 -43 -5 -46 -15 -4 -10 -15 -12 -37 -8 -18 3 -34 7 -35 9 -2 1 20 48 50 103 49 93 55 101 83 101 17 0 35 -4 41 -8z m468 -13 c32 -26 33 -33 0 -47 -20 -10 -30 -9 -46 2 -32 23 -58 4 -58 -42 0 -21 5 -43 12 -50 19 -19 56 -14 63 8 4 14 15 20 35 20 37 0 42 -9 24 -47 -18 -36 -51 -53 -103 -53 -49 0 -84 28 -100 79 -11 38 -13 39 -29 23 -17 -16 -17 -19 5 -57 13 -22 23 -43 23 -47 0 -5 -17 -8 -37 -8 -34 1 -41 5 -68 48 l-30 47 -3 -47 c-3 -47 -4 -48 -38 -48 l-34 0 0 110 0 110 78 0 c82 0 122 -16 122 -48 0 -11 8 -5 20 16 33 54 114 70 164 31z m2275 -81 c-53 -105 -139 -290 -138 -297 0 -3 73 -71 162 -151 l160 -145 -44 -13 c-391 -117 -940 -212 -1226 -212 l-103 0 0 242 0 241 -61 74 c-34 41 -59 76 -57 78 2 2 64 9 138 15 178 14 402 44 575 76 147 27 491 112 560 138 65 24 68 21 34 -46z m-1689 -131 c0 -19 195 -239 227 -255 27 -15 27 -15 5 -23 -92 -34 -534 -111 -718 -125 l-90 -7 3 64 c2 35 6 91 9 125 l5 61 65 12 c107 19 293 77 389 119 103 46 105 46 105 29z m-1624 -42 c61 -25 177 -62 257 -82 98 -25 143 -40 138 -47 -5 -6 -6 -58 -1 -116 4 -58 6 -108 4 -111 -13 -24 -753 115 -742 140 9 20 214 261 222 261 6 0 61 -20 122 -45z m-481 -121 l-6 -53 -30 11 c-16 5 -29 14 -29 19 0 5 15 38 32 72 31 59 33 60 36 32 2 -16 1 -53 -3 -81z m2531 -17 c32 -45 26 -54 -39 -63 l-47 -7 0 89 1 89 29 -35 c16 -19 42 -52 56 -73z m-2437 -117 c415 -112 769 -160 1186 -160 398 0 717 40 1130 141 66 16 124 29 130 29 7 0 9 -94 7 -282 -2 -237 -5 -285 -18 -294 -24 -19 -305 -94 -484 -131 -273 -55 -485 -75 -785 -75 -301 0 -509 20 -788 76 -164 33 -446 109 -518 139 l-34 14 3 291 c2 200 6 292 13 292 6 0 77 -18 158 -40z"/>
<path d="M3137 5159 c-10 -35 -9 -39 8 -39 16 0 18 14 6 44 -7 18 -8 18 -14 -5z"/>
<path d="M2670 5058 c0 -18 5 -28 15 -28 19 0 19 11 0 36 -14 18 -14 18 -15 -8z"/>
<path d="M2260 4852 c0 -5 6 -16 13 -27 10 -13 16 -15 21 -6 4 6 2 18 -4 26 -13 16 -30 20 -30 7z"/>
<path d="M4182 4842 c-20 -16 -22 -20 -9 -30 12 -11 17 -7 25 18 6 16 10 30 9 30 -1 0 -12 -9 -25 -18z"/>
<path d="M3204 4585 c0 -88 2 -123 3 -77 2 46 2 118 0 160 -1 42 -3 5 -3 -83z"/>
<path d="M3047 4723 c-4 -6 2 -50 12 -99 11 -49 25 -115 31 -147 6 -31 15 -55 20 -52 4 3 -5 69 -22 147 -35 172 -33 165 -41 151z"/>
<path d="M3360 4717 c0 -1 -13 -63 -30 -137 -32 -145 -35 -170 -21 -154 5 5 21 67 36 139 15 71 30 136 32 142 3 7 0 13 -6 13 -6 0 -11 -1 -11 -3z"/>
<path d="M2888 4675 c-4 -5 106 -269 117 -283 2 -2 5 0 8 5 3 5 -22 69 -55 143 -67 150 -63 142 -70 135z"/>
<path d="M3507 4643 c-8 -15 -36 -74 -61 -131 -44 -97 -57 -138 -37 -116 16 17 124 264 118 270 -3 3 -12 -7 -20 -23z"/>
<path d="M3146 4528 c6 -92 9 -106 19 -96 9 8 -8 188 -17 188 -6 0 -7 -37 -2 -92z"/>
<path d="M3266 4568 c-4 -29 -9 -72 -12 -95 -4 -26 -2 -43 4 -43 5 0 13 26 16 58 4 31 9 74 12 95 3 21 2 37 -4 37 -5 0 -12 -24 -16 -52z"/>
<path d="M2740 4590 c0 -16 169 -240 181 -240 6 0 0 15 -13 33 -13 17 -55 74 -92 125 -69 92 -76 100 -76 82z"/>
<path d="M3003 4583 c31 -112 53 -173 60 -173 4 0 6 8 3 18 -3 9 -15 52 -27 95 -12 42 -26 77 -32 77 -5 0 -7 -8 -4 -17z"/>
<path d="M3405 4573 c-38 -95 -60 -182 -41 -162 11 11 64 179 57 179 -5 0 -12 -8 -16 -17z"/>
<path d="M3579 4479 c-99 -133 -103 -139 -91 -139 14 0 184 229 180 242 -2 6 -42 -41 -89 -103z"/>
<path d="M2870 4535 c0 -15 94 -167 97 -158 5 13 -77 163 -89 163 -4 0 -8 -2 -8 -5z"/>
<path d="M3508 4482 c-15 -26 -38 -62 -50 -81 -14 -23 -17 -32 -8 -29 13 4 99 134 100 151 0 20 -18 2 -42 -41z"/>
<path d="M2621 4483 c1 -8 191 -182 215 -196 8 -4 14 -4 14 1 0 9 -205 194 -221 200 -5 2 -9 0 -8 -5z"/>
<path d="M3685 4394 c-127 -109 -130 -112 -122 -120 6 -6 237 191 237 202 0 13 -25 -5 -115 -82z"/>
<path d="M2760 4464 c0 -12 106 -136 122 -142 21 -9 2 19 -57 83 -35 39 -64 65 -65 59z"/>
<path d="M3586 4381 c-37 -38 -64 -71 -58 -75 10 -6 138 131 130 139 -2 2 -35 -26 -72 -64z"/>
<path d="M2526 4361 c-4 -6 159 -106 258 -159 5 -3 7 1 5 7 -6 16 -257 162 -263 152z"/>
<path d="M2670 4361 c0 -13 138 -113 150 -109 6 2 -19 26 -56 53 -84 62 -94 68 -94 56z"/>
<path d="M3667 4293 c-43 -30 -76 -58 -73 -61 9 -8 166 99 160 109 -7 11 3 17 -87 -48z"/>
<path d="M3755 4278 c-148 -81 -140 -76 -132 -84 7 -7 267 136 267 148 0 11 9 15 -135 -64z"/>
<path d="M2590 4243 c1 -10 170 -87 177 -80 5 6 -115 69 -154 81 -13 4 -23 4 -23 -1z"/>
<path d="M3730 4192 c-95 -39 -96 -40 -88 -48 6 -6 156 53 172 67 23 20 -5 14 -84 -19z"/>
<path d="M2456 4211 c-4 -6 266 -101 287 -101 5 0 6 4 3 9 -3 5 -45 21 -93 36 -49 16 -112 36 -140 46 -29 10 -55 14 -57 10z"/>
<path d="M3803 4156 c-120 -38 -162 -55 -137 -56 23 -1 292 85 288 92 -7 11 0 12 -151 -36z"/>
<path d="M3172 4133 c-6 -16 -33 -89 -62 -163 -90 -237 -118 -380 -86 -442 8 -16 14 -28 12 -28 -21 0 -241 -33 -293 -44 -81 -17 -185 -56 -190 -72 -6 -18 67 -101 132 -150 72 -54 193 -114 295 -145 62 -19 98 -23 205 -23 78 -1 152 5 185 13 144 36 283 118 395 230 57 58 58 61 40 75 -57 43 -231 88 -392 101 -46 4 -83 10 -83 14 1 3 7 17 15 31 32 57 15 145 -92 463 -31 92 -60 167 -64 167 -4 0 -12 -12 -17 -27z m77 -309 c58 -207 61 -240 27 -281 -49 -58 -132 -59 -180 -2 -34 39 -34 81 0 190 14 46 40 130 57 187 17 56 34 99 37 95 4 -5 30 -90 59 -189z m-59 -385 c112 5 239 0 328 -13 105 -16 232 -52 232 -65 0 -22 -151 -52 -265 -52 -101 1 -162 16 -242 61 l-54 31 -62 -30 c-34 -16 -102 -38 -151 -47 -76 -15 -100 -16 -168 -6 -92 13 -198 41 -198 52 0 8 83 32 175 51 87 17 241 28 305 22 30 -3 75 -5 100 -4z"/>
<path d="M2550 4112 c0 -11 179 -51 185 -41 3 4 -36 17 -86 28 -104 24 -99 24 -99 13z"/>
<path d="M3780 4080 c-19 -4 -52 -11 -72 -14 -21 -4 -38 -10 -38 -15 0 -10 172 18 185 30 11 11 -25 10 -75 -1z"/>
<path d="M2420 4051 c0 -4 53 -13 118 -20 64 -6 135 -14 157 -18 28 -4 37 -2 30 5 -5 6 -74 18 -152 26 -167 19 -153 18 -153 7z"/>
<path d="M3808 4026 c-64 -6 -120 -14 -124 -18 -10 -11 19 -10 174 4 72 6 132 15 132 20 0 9 -25 9 -182 -6z"/>
<path d="M2530 3980 c0 -6 38 -9 98 -9 89 2 92 2 42 9 -81 12 -140 11 -140 0z"/>
<path d="M3680 3950 c0 -6 39 -10 96 -10 61 0 93 4 89 10 -3 6 -46 10 -96 10 -53 0 -89 -4 -89 -10z"/>
<path d="M2560 3915 c-63 -8 -121 -14 -127 -14 -7 -1 -13 -5 -13 -9 0 -4 55 -2 123 5 67 6 134 12 150 12 15 1 27 6 27 11 0 12 -11 12 -160 -5z"/>
<path d="M3690 3902 c8 -5 64 -15 125 -21 60 -7 122 -15 137 -18 16 -3 28 -1 28 4 0 10 -95 25 -240 38 -42 4 -60 3 -50 -3z"/>
<path d="M2616 3864 c-66 -13 -84 -20 -75 -28 6 -6 176 28 185 37 11 10 -31 7 -110 -9z"/>
<path d="M3670 3852 c0 -11 172 -51 185 -44 5 3 -31 16 -80 29 -102 26 -105 26 -105 15z"/>
<path d="M2603 3791 c-150 -47 -157 -50 -150 -57 8 -8 287 77 287 88 0 11 -2 11 -137 -31z"/>
<path d="M3651 3805 c12 -11 273 -96 288 -92 9 1 -47 24 -124 50 -127 43 -177 55 -164 42z"/>
<path d="M2670 3752 c-95 -39 -96 -40 -88 -48 6 -6 156 53 172 67 23 20 -5 14 -84 -19z"/>
<path d="M3630 3762 c0 -7 162 -92 175 -92 17 0 -1 19 -32 34 -89 43 -143 65 -143 58z"/>
<path d="M2640 3662 c-73 -42 -129 -77 -123 -79 15 -5 278 143 266 150 -4 3 -69 -29 -143 -71z"/>
<path d="M3620 3706 c27 -24 243 -147 254 -143 11 4 -239 157 -257 157 -7 0 -6 -5 3 -14z"/>
<path d="M2726 3642 c-44 -31 -74 -58 -68 -60 13 -4 152 95 152 109 0 12 5 15 -84 -49z"/>
<path d="M3580 3672 c0 -12 138 -114 149 -110 10 3 -131 118 -144 118 -3 0 -5 -4 -5 -8z"/>
<path d="M2723 3553 c-61 -54 -109 -102 -106 -106 4 -7 57 36 178 147 104 95 43 61 -72 -41z"/>
<path d="M3552 3631 c5 -15 212 -201 223 -200 6 0 -39 47 -100 104 -100 95 -132 120 -123 96z"/>
<path d="M2745 3045 c-5 -1 -36 -8 -67 -14 l-57 -12 -36 -117 c-20 -64 -40 -128 -45 -142 -5 -14 -27 -86 -50 -160 -23 -74 -50 -162 -61 -194 -10 -33 -19 -63 -19 -67 0 -4 34 -10 75 -14 71 -7 153 0 313 26 86 14 177 3 302 -37 l83 -26 125 32 c108 28 136 32 206 27 45 -4 110 -13 146 -21 67 -16 266 -22 273 -8 4 7 -198 680 -207 690 -15 15 -124 34 -222 39 -122 6 -182 -3 -274 -44 l-55 -24 -65 25 c-36 14 -85 30 -110 35 -41 10 -230 14 -255 6z m247 -16 c29 -6 81 -23 116 -36 l62 -25 0 -279 c0 -153 -3 -279 -7 -279 -5 0 -37 9 -73 21 -95 29 -197 34 -316 15 -113 -18 -214 -21 -214 -7 0 6 38 134 85 286 47 152 85 283 85 290 0 7 8 16 18 18 35 9 193 7 244 -4z m628 -5 c9 -9 170 -569 170 -591 0 -18 -95 -17 -195 2 -141 28 -270 18 -387 -30 -18 -7 -21 55 -23 477 l0 83 41 22 c74 41 139 53 267 49 65 -2 122 -7 127 -12z m-900 -6 c0 -7 -40 -141 -89 -298 -48 -157 -86 -289 -83 -294 6 -11 200 -1 272 15 72 15 175 6 284 -26 l89 -26 61 21 c85 30 217 36 331 16 78 -14 225 -22 225 -13 0 3 -155 552 -166 590 -5 14 -1 18 12 15 15 -2 36 -66 110 -321 l92 -317 -24 -6 c-35 -9 -155 1 -259 21 -115 22 -224 16 -322 -18 l-72 -25 -73 23 c-130 41 -223 50 -340 31 -57 -9 -119 -19 -140 -22 -50 -8 -128 5 -128 21 0 10 160 522 185 593 2 6 1 12 -3 12 -4 0 -25 -58 -47 -128 -22 -70 -65 -208 -97 -307 -39 -122 -54 -183 -47 -190 14 -14 173 -12 245 4 96 21 260 10 361 -23 l81 -26 79 26 c112 38 196 41 342 14 113 -21 249 -25 266 -8 3 3 -35 146 -85 318 -50 171 -89 315 -86 318 4 3 11 1 17 -5 15 -15 210 -663 203 -674 -10 -17 -174 -9 -277 12 -127 27 -224 22 -359 -16 l-96 -27 -79 25 c-162 53 -209 56 -425 23 -128 -20 -248 -16 -248 9 0 10 125 422 195 641 2 7 21 16 42 22 52 14 53 14 53 0z"/>
<path d="M3610 2920 c0 -5 5 -10 11 -10 5 0 7 5 4 10 -3 6 -8 10 -11 10 -2 0 -4 -4 -4 -10z"/>
<path d="M1675 4169 c-9 -13 -7 -15 30 -23 29 -7 29 -7 11 13 -21 23 -32 26 -41 10z"/>
<path d="M4752 3908 c-19 -19 -14 -56 8 -68 47 -25 120 28 90 65 -15 18 -81 20 -98 3z"/>
<path d="M1540 3735 c0 -10 10 -15 33 -15 30 1 31 1 13 15 -25 19 -46 19 -46 0z"/>
<path d="M1492 3513 c3 -26 6 -28 53 -28 47 0 50 2 53 28 3 27 3 27 -53 27 -56 0 -56 0 -53 -27z"/>
<path d="M4830 3360 l-25 -7 28 -12 c37 -14 37 -14 37 9 0 21 -2 22 -40 10z"/>
<path d="M4606 2721 c-19 -21 -16 -24 47 -56 33 -17 39 -18 47 -5 16 26 11 40 -22 60 -41 25 -51 25 -72 1z"/>
<path d="M1813 2573 c-38 -26 -25 -83 18 -83 10 0 30 10 45 23 22 19 26 29 20 50 -5 21 -12 27 -34 26 -15 0 -37 -7 -49 -16z"/>
<path d="M4285 2320 c-8 -14 46 -85 65 -85 7 0 18 8 24 17 8 13 6 24 -10 45 -22 29 -67 42 -79 23z"/>
<path d="M2211 2222 c-9 -18 -8 -23 10 -33 33 -17 49 5 22 32 l-21 21 -11 -20z"/>
<path d="M3940 2028 c0 -31 10 -40 30 -28 13 8 11 13 -7 32 l-23 22 0 -26z"/>
<path d="M1300 1633 c-29 -11 -50 -36 -50 -60 0 -21 -3 -23 -38 -17 -48 8 -57 -4 -66 -78 -6 -48 -5 -58 8 -58 10 0 17 13 21 38 10 57 15 72 27 72 6 0 8 -21 3 -61 -7 -56 -6 -61 11 -57 14 2 20 15 24 50 7 53 13 63 35 55 23 -9 20 -82 -5 -107 -16 -16 -28 -19 -60 -14 -42 7 -80 -13 -80 -43 0 -19 27 -16 34 3 5 13 15 15 46 10 52 -8 94 13 109 55 15 44 14 59 -9 104 -29 56 -26 75 10 75 42 0 48 -19 34 -113 -12 -86 -11 -97 10 -97 16 0 41 167 31 200 -5 17 -63 53 -77 49 -2 0 -10 -3 -18 -6z"/>
<path d="M936 1568 c-16 -25 -13 -58 5 -58 5 0 9 -4 9 -8 0 -5 -21 -6 -47 -2 -57 9 -70 5 -79 -23 -5 -16 1 -28 25 -49 43 -38 121 -40 175 -3 20 14 39 25 41 25 3 0 5 -15 5 -34 0 -31 14 -55 26 -44 2 3 10 48 17 101 12 90 12 97 -4 97 -12 0 -19 -12 -23 -45 -8 -50 -26 -61 -26 -16 0 40 -28 71 -72 77 -31 5 -38 3 -52 -18z m44 -28 c0 -5 -4 -10 -10 -10 -5 0 -10 5 -10 10 0 6 5 10 10 10 6 0 10 -4 10 -10z m50 -30 c0 -15 -7 -20 -26 -20 l-26 0 23 20 c30 24 29 24 29 0z m-31 -56 c10 -10 -25 -24 -60 -24 -23 0 -46 8 -60 21 l-24 20 70 -6 c38 -3 72 -8 74 -11z"/>
<path d="M1435 1495 c-26 -25 -32 -63 -15 -96 13 -23 62 -26 80 -4 17 20 5 62 -20 70 -11 4 -18 11 -15 16 9 13 49 11 63 -3 15 -15 16 -54 2 -63 -5 -3 -10 -14 -10 -24 0 -14 11 -20 45 -25 45 -7 45 -8 45 -47 0 -28 4 -39 15 -39 8 0 15 3 15 8 0 4 4 34 9 67 23 152 23 145 2 145 -15 0 -20 -10 -26 -56 -6 -49 -9 -55 -28 -52 -19 3 -22 8 -19 40 7 77 -88 119 -143 63z m45 -76 c0 -5 -7 -9 -15 -9 -15 0 -20 12 -9 23 8 8 24 -1 24 -14z"/>
<path d="M2971 1869 c-10 -28 -6 -39 15 -39 11 0 13 7 8 28 -9 37 -12 39 -23 11z"/>
<path d="M3180 1880 c0 -17 5 -21 28 -18 16 2 27 9 27 18 0 9 -11 16 -27 18 -23 3 -28 -1 -28 -18z"/>
<path d="M5416 1599 c-41 -33 -34 -89 15 -115 22 -11 29 -22 29 -44 0 -42 -35 -42 -43 -1 -18 90 -139 96 -170 8 -7 -20 9 -68 26 -79 20 -13 54 -9 67 7 9 11 15 13 20 5 5 -8 28 -10 75 -5 l67 8 -7 56 c-10 85 -13 94 -40 87 -30 -8 -42 20 -19 45 40 44 69 7 79 -99 5 -50 12 -75 22 -79 7 -3 16 -3 19 -1 3 3 0 47 -7 97 -10 78 -15 95 -37 111 -32 26 -63 25 -96 -1z m-52 -132 c11 -8 17 -22 14 -37 -4 -31 -21 -35 -33 -8 -6 14 -22 25 -40 28 -28 5 -29 6 -10 18 26 15 47 15 69 -1z m-44 -68 c0 -5 -7 -9 -15 -9 -15 0 -20 12 -9 23 8 8 24 -1 24 -14z"/>
<path d="M5087 1481 c-21 -3 -38 -8 -39 -11 0 -3 2 -36 6 -73 6 -56 11 -68 24 -65 17 4 19 38 7 96 -4 15 -1 22 10 22 10 0 15 -10 15 -32 0 -48 10 -78 26 -78 8 0 14 10 14 23 0 31 19 50 37 36 21 -18 15 -58 -12 -84 -19 -19 -35 -25 -70 -25 -61 0 -82 13 -96 59 -9 31 -8 43 6 71 23 44 5 61 -25 23 -29 -37 -24 -112 10 -148 51 -54 152 -54 206 0 35 35 34 108 -1 131 -14 9 -32 13 -45 9 -14 -5 -20 -2 -20 9 0 9 9 16 20 16 11 0 20 7 20 15 0 16 -23 17 -93 6z"/>
<path d="M4833 1453 c-40 -4 -43 -6 -43 -33 0 -16 -4 -32 -10 -35 -16 -10 -11 -51 8 -68 36 -33 102 -10 102 36 0 9 7 17 15 17 18 0 19 -5 3 -30 -7 -10 -9 -23 -5 -27 15 -14 42 14 45 46 3 28 0 32 -27 37 -31 7 -44 34 -16 34 8 0 15 7 15 15 0 9 -8 14 -22 13 -13 -1 -42 -3 -65 -5z m17 -43 c0 -5 -4 -10 -10 -10 -5 0 -10 5 -10 10 0 6 5 10 10 10 6 0 10 -4 10 -10z m10 -54 c0 -17 -24 -28 -45 -20 -20 8 -19 21 3 27 32 9 42 7 42 -7z"/>
<path d="M2505 1170 c-9 -15 4 -30 26 -30 12 0 19 7 19 20 0 21 -33 29 -45 10z"/>
<path d="M4066 1165 c-3 -9 0 -18 9 -21 21 -8 47 3 43 19 -7 18 -45 20 -52 2z"/>
<path d="M2218 1145 c-8 -19 -8 -28 2 -40 15 -18 8 -18 -43 -4 -50 14 -77 4 -77 -27 0 -57 98 -106 166 -84 18 6 36 16 39 21 4 5 13 9 21 9 11 0 13 -9 8 -40 -5 -32 -3 -40 8 -40 20 0 80 181 64 192 -19 13 -23 9 -36 -37 -15 -54 -28 -59 -27 -10 1 47 -34 85 -80 85 -26 0 -36 -6 -45 -25z m52 -15 c0 -5 -4 -10 -10 -10 -5 0 -10 5 -10 10 0 6 5 10 10 10 6 0 10 -4 10 -10z m37 -54 c-4 -9 -14 -12 -28 -9 l-21 6 23 13 c27 14 34 11 26 -10z m-78 -26 c22 -6 41 -15 41 -20 0 -14 -67 -12 -93 1 -40 22 -51 54 -13 39 13 -4 42 -14 65 -20z"/>
<path d="M2442 1102 c-27 -23 -45 -119 -24 -127 19 -7 18 -9 28 49 5 27 15 51 23 54 11 4 13 -3 7 -34 -12 -70 -11 -78 5 -82 12 -2 18 7 23 35 11 60 16 73 31 73 30 0 34 -67 6 -101 -16 -20 -28 -24 -76 -24 -44 0 -60 -4 -69 -17 -8 -13 -7 -21 2 -30 11 -11 15 -10 24 5 8 16 18 18 59 12 45 -6 51 -5 79 23 25 26 30 38 30 80 0 54 -20 82 -58 82 -11 0 -32 4 -46 10 -19 7 -29 5 -44 -8z"/>
<path d="M2900 1100 c0 -16 5 -21 23 -18 12 2 22 10 22 18 0 8 -10 16 -22 18 -18 3 -23 -2 -23 -18z"/>
<path d="M4116 1104 c-19 -18 -20 -30 -5 -74 9 -25 9 -34 -2 -40 -19 -12 -25 -6 -39 45 -14 50 -20 57 -39 46 -9 -6 -7 -22 10 -72 12 -35 23 -65 24 -67 1 -1 33 7 71 19 112 34 130 65 70 125 -37 37 -66 43 -90 18z m64 -38 c24 -27 22 -56 -5 -56 -15 0 -35 37 -35 66 0 21 13 17 40 -10z"/>
<path d="M3624 1095 c-7 -18 3 -35 21 -35 18 0 26 25 12 39 -15 15 -27 14 -33 -4z"/>
<path d="M2632 1068 c-5 -7 -13 -37 -17 -67 -5 -40 -4 -56 6 -62 11 -7 16 4 24 49 13 72 31 70 27 -3 -3 -43 -1 -55 11 -55 15 0 26 28 27 65 0 11 4 26 9 34 8 12 12 12 25 2 21 -17 20 -70 0 -100 -15 -21 -22 -23 -64 -17 -39 5 -50 3 -65 -14 -11 -12 -15 -26 -10 -37 6 -17 7 -17 19 0 10 12 27 17 65 17 69 0 101 31 101 99 0 62 -23 94 -62 89 -16 -3 -31 -1 -34 4 -8 12 -50 10 -62 -4z"/>
<path d="M3955 1065 c-5 -2 -31 -6 -58 -10 -43 -6 -47 -8 -41 -29 3 -14 -1 -27 -10 -35 -37 -31 -3 -81 55 -81 41 0 59 15 59 48 0 39 34 24 38 -17 10 -99 -144 -121 -184 -25 -12 29 -12 39 0 68 18 43 7 64 -20 35 -27 -30 -25 -106 5 -147 27 -38 83 -58 137 -48 53 10 104 63 104 108 0 47 -24 78 -61 78 -33 0 -39 15 -9 23 11 3 20 12 20 21 0 15 -12 19 -35 11z m-41 -56 c-3 -5 -10 -7 -15 -3 -5 3 -7 10 -3 15 3 5 10 7 15 3 5 -3 7 -10 3 -15z m6 -54 c0 -15 -43 -12 -48 3 -3 10 4 13 22 10 15 -2 26 -7 26 -13z"/>
<path d="M2817 983 c-3 -38 -3 -70 0 -73 11 -12 164 -12 178 0 40 34 -1 130 -55 130 -35 0 -50 -23 -50 -74 0 -37 -5 -42 -29 -27 -10 7 -12 22 -8 60 5 45 4 51 -12 51 -15 0 -19 -11 -24 -67z m151 -16 c3 -34 1 -37 -23 -37 -21 0 -26 4 -21 16 3 9 6 27 6 41 0 18 5 24 18 21 12 -2 18 -14 20 -41z"/>
<path d="M3593 1024 c-7 -3 -13 -16 -13 -29 0 -13 -4 -27 -10 -30 -18 -11 -11 -64 9 -75 42 -22 101 0 101 38 0 7 7 12 15 12 17 0 20 -16 5 -25 -17 -10 -11 -37 6 -33 44 8 43 81 -1 92 -30 8 -33 26 -4 26 12 0 19 5 17 13 -5 12 -101 21 -125 11z m43 -51 c-10 -10 -19 5 -10 18 6 11 8 11 12 0 2 -7 1 -15 -2 -18z m7 -49 c-6 -17 -44 -15 -51 4 -2 8 7 12 27 12 23 0 29 -4 24 -16z"/>
<path d="M3230 995 c0 -15 -7 -33 -15 -41 -8 -9 -15 -22 -15 -30 0 -22 37 -54 63 -54 28 0 67 26 67 46 0 8 5 14 10 14 14 0 13 -27 -2 -32 -12 -4 -3 -28 12 -28 16 0 40 31 40 51 0 12 -13 27 -30 37 -35 20 -38 32 -9 32 12 0 19 5 17 13 -3 7 -29 13 -71 15 -66 3 -67 3 -67 -23z m60 -15 c0 -5 -4 -10 -10 -10 -5 0 -10 5 -10 10 0 6 5 10 10 10 6 0 10 -4 10 -10z m-2 -62 c-3 -7 -13 -13 -23 -13 -10 0 -20 6 -22 13 -3 7 5 12 22 12 17 0 25 -5 23 -12z"/>
<path d="M3412 948 c2 -57 6 -73 18 -73 11 0 15 13 15 54 0 34 5 56 13 59 8 2 12 -12 12 -52 0 -49 2 -56 20 -56 18 0 20 7 20 55 0 42 3 55 15 55 8 0 15 7 15 15 0 12 -14 15 -65 15 l-66 0 3 -72z"/>
</g>
</svg>