<?xml version="1.0" standalone="no"?><!DOCTYPE svg PUBLIC "-//W3C//DTD SVG 20010904//EN" "http://www.w3.org/TR/2001/REC-SVG-20010904/DTD/svg10.dtd"><svg xmlns="http://www.w3.org/2000/svg" version="1.0" width="758.000000pt" height="902.000000pt" viewBox="0 0 758.000000 902.000000" preserveAspectRatio="xMidYMid meet">

<g transform="translate(0.000000,902.000000) scale(0.100000,-0.100000)" fill="#00eeff" stroke="none">
<path d="M3885 9009 c-38 -5 -86 -6 -106 -3 -52 8 -234 -13 -320 -37 -106 -29 -204 -84 -274 -154 -102 -102 -145 -210 -145 -365 0 -158 53 -301 156 -427 79 -97 174 -223 174 -232 0 -11 -122 -36 -295 -62 -201 -29 -352 -83 -407 -146 -23 -26 -48 -87 -48 -119 0 -68 56 -124 125 -124 29 0 45 8 72 35 32 32 35 40 30 76 -7 50 -31 79 -69 79 -37 0 -72 -35 -64 -63 3 -12 6 -25 6 -29 0 -5 5 -8 10 -8 6 0 10 13 10 28 0 48 34 67 64 36 18 -17 21 -66 6 -94 -16 -30 -66 -42 -105 -26 -44 19 -58 48 -53 108 6 55 35 93 103 133 37 22 200 75 231 75 8 0 -3 -17 -24 -38 -61 -61 -65 -141 -10 -187 37 -32 79 -36 125 -13 54 27 55 133 1 152 -44 16 -78 -6 -78 -49 0 -41 17 -48 22 -9 2 15 11 32 21 38 15 9 22 7 38 -13 26 -31 24 -57 -6 -86 -55 -56 -135 -15 -135 68 0 39 5 49 39 80 48 43 102 61 262 87 70 11 133 22 142 25 19 8 47 -70 47 -131 l0 -42 -167 -85 c-93 -47 -292 -138 -443 -202 -416 -178 -664 -308 -890 -468 -642 -454 -1073 -1172 -1202 -2002 -25 -166 -35 -533 -19 -701 34 -340 119 -659 266 -992 359 -814 979 -1431 1714 -1703 214 -80 490 -143 741 -170 257 -27 633 -10 923 42 676 120 1279 445 1704 919 553 617 844 1391 820 2185 -21 707 -266 1389 -683 1906 -100 125 -347 370 -479 477 -404 327 -953 554 -1516 627 -68 9 -125 17 -126 18 -1 2 35 29 79 62 45 33 127 105 182 160 291 289 427 642 356 919 -28 109 -63 169 -150 257 -88 88 -178 137 -309 168 -101 24 -250 33 -346 20z m505 -280 c148 -70 221 -226 207 -443 -7 -97 -36 -218 -52 -216 -12 1 -12 5 4 134 36 287 -70 474 -280 493 -145 14 -253 -75 -298 -245 -13 -46 -31 -48 -31 -4 0 81 57 210 111 256 55 45 93 56 194 53 73 -2 100 -7 145 -28z m-860 -11 c54 -28 80 -74 79 -138 -1 -43 -1 -44 -9 -13 -10 45 -35 80 -73 104 -26 17 -44 20 -102 16 -114 -6 -204 -65 -246 -159 -19 -44 -23 -71 -23 -158 -1 -122 11 -165 79 -284 52 -92 37 -84 -33 17 -79 116 -95 152 -100 241 -14 240 110 393 323 395 44 1 73 -5 105 -21z m124 -276 c34 -36 43 -89 22 -128 l-15 -29 -1 50 c0 34 -8 64 -25 93 -28 49 -20 54 19 14z m250 -12 c-43 -28 -61 -73 -46 -113 15 -39 9 -44 -17 -18 -29 29 -28 91 2 118 25 23 43 31 72 32 16 1 14 -3 -11 -19z m435 -42 c97 -60 44 -266 -66 -256 -42 4 -44 21 -3 29 41 9 68 35 81 80 30 99 -55 163 -151 114 -57 -30 -64 -58 -70 -295 -6 -216 -16 -275 -43 -264 -12 4 -12 13 0 56 9 36 12 107 10 232 -2 171 -1 184 21 228 27 54 39 65 89 84 40 15 102 11 132 -8z m-812 -43 c40 -27 63 -74 63 -134 0 -71 -22 -231 -31 -231 -19 0 -20 28 -9 139 11 104 11 121 -4 148 -48 95 -172 81 -191 -20 -13 -70 35 -116 97 -93 37 14 48 -1 19 -25 -28 -23 -62 -24 -100 -5 -69 36 -69 172 1 218 47 31 110 32 155 3z m403 -275 c0 -45 -3 -52 -25 -60 -31 -12 -85 -2 -85 15 0 13 88 95 103 95 4 0 7 -23 7 -50z m-9 -132 c-5 -23 -14 -34 -34 -39 -33 -9 -82 3 -81 19 1 7 2 21 3 32 1 18 8 20 60 20 l58 0 -6 -32z m-35 -102 c-3 -11 -6 -24 -6 -28 0 -9 -72 -11 -93 -2 -12 4 -13 12 -6 32 9 25 13 27 60 23 46 -3 50 -5 45 -25z m-55 -75 c27 -6 27 -6 12 -42 -14 -35 -16 -36 -50 -29 -46 11 -57 23 -49 54 7 27 28 31 87 17z m-75 -97 c22 -9 41 -18 43 -19 7 -7 -52 -75 -64 -75 -8 0 -27 12 -44 26 l-31 25 22 30 c25 34 24 34 74 13z m-81 -99 l30 -25 -26 -26 -26 -26 -34 30 c-33 30 -34 30 -15 51 24 27 34 26 71 -4z m-85 -70 l23 -24 -24 -20 c-26 -21 -41 -15 -61 22 -8 16 -7 23 8 34 24 18 27 17 54 -12z m-81 -56 c21 -28 22 -33 8 -47 -14 -13 -19 -12 -48 17 -30 31 -31 33 -13 46 26 20 27 19 53 -16z m-84 -35 c26 -34 26 -36 9 -49 -26 -20 -31 -19 -59 10 -30 29 -31 43 -7 61 24 19 27 18 57 -22z m395 -40 c0 -19 -6 -34 -14 -37 -12 -5 -13 2 -9 29 l6 35 -39 -3 c-36 -3 -39 -5 -39 -33 0 -25 5 -31 30 -35 l30 -5 -42 -18 c-32 -12 -49 -14 -68 -7 -40 15 -45 13 -45 -20 0 -23 3 -28 18 -24 14 5 14 4 2 -4 -8 -6 -18 -8 -23 -5 -15 9 -58 -7 -51 -19 4 -7 3 -8 -4 -4 -16 9 -63 -4 -56 -16 4 -6 -3 -5 -15 2 -32 17 -66 9 -66 -15 0 -11 -7 -21 -15 -21 -8 -1 -19 -3 -25 -4 -5 -1 -18 -1 -29 0 -11 1 -16 -3 -11 -10 4 -7 -1 -9 -18 -5 -14 4 -28 2 -31 -4 -5 -7 -15 -7 -32 -1 -33 13 -32 13 -36 -12 -2 -17 -9 -22 -26 -21 -16 2 -21 -1 -16 -9 5 -7 2 -9 -8 -5 -9 3 -26 0 -40 -7 -13 -7 -30 -10 -37 -8 -9 3 -11 0 -7 -9 4 -8 -1 -3 -13 11 -27 34 -13 46 55 43 47 -2 54 0 54 16 0 14 12 22 48 31 26 7 51 17 56 21 15 13 26 11 26 -6 0 -10 11 -15 35 -15 28 0 35 4 35 20 0 12 -7 20 -17 20 -39 1 33 29 75 30 34 0 42 3 42 19 0 10 7 21 15 25 11 4 15 -1 15 -19 0 -21 5 -25 29 -25 40 0 54 35 26 64 -13 13 -13 15 7 22 13 4 41 8 63 8 37 1 40 3 37 28 -3 32 35 63 67 53 10 -3 22 -1 26 5 11 18 34 -21 35 -56z m-476 -59 c-15 -10 -22 -11 -34 -2 -42 33 -50 62 -23 82 15 11 21 8 46 -27 28 -37 29 -40 11 -53z m973 -5 c245 -61 541 -174 753 -287 229 -121 408 -253 604 -443 355 -345 596 -738 755 -1234 91 -282 126 -543 119 -879 -3 -126 -9 -232 -14 -237 -5 -4 -58 0 -119 11 -161 27 -165 26 -165 -15 l0 -34 140 -7 140 -8 -5 -36 c-14 -85 -3 -79 -107 -64 -192 26 -250 34 -264 40 -11 4 -14 -7 -14 -54 0 -33 -5 -64 -12 -71 -9 -9 30 -12 175 -12 203 0 193 3 181 -59 l-6 -31 -189 0 -189 0 0 -22 c0 -13 -9 -42 -20 -65 l-19 -43 -133 0 c-73 0 -151 -3 -172 -7 -36 -6 -39 -5 -31 13 4 10 10 43 13 72 l4 52 -159 0 c-149 0 -161 -1 -182 -21 -13 -12 -30 -37 -37 -55 -8 -19 -17 -34 -20 -34 -2 0 -18 10 -34 22 -24 17 -44 22 -99 22 -88 1 -101 -9 -101 -83 -1 -31 -8 -74 -16 -96 -8 -22 -19 -80 -24 -129 -10 -91 -46 -190 -79 -220 -12 -11 -7 5 13 45 37 76 43 180 12 242 -45 92 -149 175 -238 191 -35 6 -37 5 -43 -26 -10 -45 -48 -117 -78 -150 -25 -27 -105 -73 -113 -65 -3 3 11 14 30 25 36 21 58 55 70 107 7 28 7 29 -11 12 -11 -9 -48 -23 -83 -30 -89 -19 -106 -30 -115 -74 -8 -42 -63 -103 -94 -103 -20 0 -20 0 -1 43 52 113 -7 217 -123 217 -56 0 -67 -8 -67 -47 0 -40 -31 -98 -61 -114 -18 -9 -19 -7 -13 30 11 68 4 73 -68 44 -59 -23 -91 -47 -100 -75 -3 -8 -11 -6 -29 4 -54 35 -66 32 -78 -16 -12 -47 -31 -70 -40 -45 -6 19 -67 79 -80 79 -6 0 -11 -14 -11 -31 0 -73 -50 -96 -70 -31 -17 51 -26 59 -48 39 -25 -23 -40 -21 -44 6 -3 25 -41 36 -62 18 -10 -9 -16 -4 -26 19 -7 17 -21 35 -31 41 -28 15 -39 -18 -32 -93 l6 -64 -119 -18 c-66 -10 -144 -24 -175 -32 -36 -9 -113 -14 -208 -14 l-151 0 0 38 c0 102 -118 166 -207 112 l-33 -20 0 39 c0 107 85 181 207 181 27 0 33 4 33 23 1 12 7 33 15 47 8 14 14 28 15 33 0 10 -1064 8 -1117 -2 -24 -5 -43 -4 -43 0 0 5 -103 9 -229 9 -127 0 -232 3 -235 8 -2 4 -7 24 -11 45 l-7 37 266 0 267 0 38 30 c30 25 81 94 81 112 0 2 -120 2 -267 0 -233 -3 -277 -1 -338 15 l-70 18 -9 98 c-5 54 -5 101 -1 105 3 4 106 8 228 10 122 2 226 8 232 13 5 5 -83 9 -228 9 l-237 0 0 88 c0 199 41 479 101 686 17 60 35 117 40 125 4 9 29 68 54 131 89 222 228 460 381 650 100 125 304 330 424 427 282 228 637 419 1024 553 66 22 208 67 315 100 227 69 393 131 505 187 l79 40 106 -19 c58 -9 161 -31 228 -48z m-1070 21 l22 -38 -26 -14 c-23 -12 -27 -11 -44 10 -24 29 -24 57 -1 70 25 15 25 15 49 -28z m-93 -37 c19 -40 15 -49 -25 -59 -21 -5 -27 -2 -37 20 -16 36 -15 52 6 64 28 17 37 13 56 -25z m-101 -41 c14 -36 14 -39 -3 -47 -27 -12 -48 -1 -56 30 -5 20 -2 31 11 41 27 19 31 17 48 -24z m-103 3 c0 -2 7 -20 15 -40 15 -36 15 -36 -11 -48 -23 -11 -29 -10 -45 11 -25 31 -24 60 4 71 25 10 37 12 37 6z m1920 -36 c8 -5 11 -10 5 -10 -5 0 -17 5 -25 10 -8 5 -10 10 -5 10 6 0 17 -5 25 -10z m-2006 -36 c19 -41 19 -39 -11 -48 -19 -6 -26 -1 -40 29 -15 31 -15 37 -3 45 25 16 36 11 54 -26z m-86 -29 l22 -46 -22 -9 c-18 -7 -27 -4 -45 16 -36 39 -29 80 13 83 5 1 20 -19 32 -44z m2167 27 c-3 -3 -11 0 -18 7 -9 10 -8 11 6 5 10 -3 15 -9 12 -12z m-2235 -103 c0 -3 -11 -11 -25 -17 -21 -10 -27 -8 -45 15 -27 35 -26 71 3 82 19 8 25 3 44 -33 12 -22 22 -44 23 -47z m2314 72 c4 -5 -3 -7 -14 -4 -23 6 -26 13 -6 13 8 0 17 -4 20 -9z m66 -21 c8 -5 12 -12 9 -15 -8 -8 -39 5 -39 16 0 11 11 11 30 -1z m-2494 -46 c15 -37 9 -53 -20 -54 -16 0 -46 32 -46 50 0 13 26 34 48 39 2 1 10 -15 18 -35z m2565 10 c12 -14 11 -16 -5 -13 -11 2 -21 10 -24 17 -5 17 13 15 29 -4z m-2135 -18 c10 -21 9 -23 -4 -18 -9 3 -13 1 -9 -5 5 -7 -1 -9 -15 -5 -14 3 -19 1 -14 -6 5 -8 1 -10 -10 -5 -11 4 -15 3 -11 -4 5 -7 0 -9 -14 -6 -23 6 -71 -15 -63 -28 3 -5 -3 -6 -12 -2 -12 5 -15 3 -9 -6 6 -10 2 -11 -15 -6 -15 5 -20 4 -16 -4 5 -7 -5 -11 -28 -11 -20 0 -36 -4 -36 -10 0 -5 -11 -10 -25 -10 -16 0 -25 6 -25 15 0 9 -8 19 -17 22 -30 12 47 32 79 21 34 -12 80 -7 86 10 2 8 -8 12 -30 13 l-33 1 35 15 c20 9 59 15 88 14 46 -1 54 1 59 19 7 27 26 25 39 -4z m-522 -28 c21 -30 20 -45 -4 -51 -14 -3 -26 3 -40 20 -29 37 -26 44 22 52 4 0 14 -9 22 -21z m2731 11 c4 -6 5 -12 2 -15 -7 -7 -37 7 -37 17 0 13 27 11 35 -2z m-2811 -54 c21 -32 21 -32 -13 -50 -28 -14 -31 -14 -45 7 -22 30 -20 43 7 56 31 15 33 15 51 -13z m2874 6 c3 -8 -1 -12 -9 -9 -7 2 -15 10 -17 17 -3 8 1 12 9 9 7 -2 15 -10 17 -17z m60 -30 c3 -8 -1 -12 -9 -9 -7 2 -15 10 -17 17 -3 8 1 12 9 9 7 -2 15 -10 17 -17z m-3028 -32 c11 -26 11 -32 -1 -40 -25 -16 -40 -10 -54 24 -12 30 -12 33 8 44 27 14 31 11 47 -28z m340 22 c-15 -29 -12 -41 10 -41 11 0 20 -3 20 -7 0 -10 -36 -13 -122 -12 l-68 0 0 -34 c0 -22 -6 -37 -15 -41 -8 -3 -15 -10 -15 -16 0 -6 5 -8 12 -4 6 4 8 3 4 -4 -4 -6 -21 -8 -42 -5 -27 5 -39 1 -54 -15 -11 -12 -20 -28 -20 -36 0 -8 -4 -18 -10 -21 -6 -3 -7 1 -4 10 9 22 -3 62 -21 68 -8 4 -21 -1 -30 -9 -20 -20 -19 -54 1 -54 8 0 13 -4 9 -9 -3 -5 3 -12 12 -15 10 -2 5 -4 -12 -3 -17 1 -29 -3 -28 -9 2 -12 -26 -12 -44 -1 -7 4 -24 5 -38 1 -19 -5 -25 -13 -25 -34 0 -15 -7 -33 -15 -40 -9 -7 -14 -19 -11 -26 4 -10 -2 -12 -22 -8 -31 5 -41 0 -65 -38 -20 -32 -22 -42 -4 -32 6 4 -4 -7 -23 -24 -19 -17 -42 -31 -50 -31 -8 0 -4 5 9 10 13 5 21 12 18 15 -10 11 -47 -17 -47 -35 0 -10 -7 -24 -15 -31 -12 -10 -16 -8 -25 14 -13 35 -37 33 -45 -5 -5 -23 -3 -34 12 -44 17 -13 17 -14 -5 -8 -18 4 -24 1 -28 -15 -4 -14 -12 -18 -25 -15 -31 8 -51 -15 -44 -51 4 -20 3 -26 -3 -18 -5 8 -13 12 -18 10 -5 -1 -10 7 -12 20 -4 24 -14 27 -43 12 -27 -15 -27 -70 1 -70 30 0 22 -30 -10 -42 -9 -3 -22 -18 -30 -34 -12 -24 -86 -104 -96 -104 -1 0 -4 6 -6 14 -2 10 -9 11 -25 5 -17 -6 -23 -16 -23 -39 0 -16 5 -30 11 -30 8 0 8 -5 -1 -15 -7 -8 -9 -15 -4 -15 4 0 -1 -6 -11 -14 -11 -8 -16 -20 -12 -29 3 -9 2 -19 -3 -22 -6 -4 -10 8 -10 25 0 27 -3 31 -22 28 -32 -4 -35 -36 -6 -47 13 -6 18 -10 13 -10 -6 -1 -19 -15 -29 -32 -13 -22 -21 -27 -26 -19 -5 8 -18 10 -34 6 -29 -7 -35 -36 -12 -59 12 -12 12 -18 -4 -42 -10 -16 -16 -34 -13 -39 4 -6 -4 -2 -16 9 l-23 20 4 -42 c2 -30 -1 -44 -10 -48 -8 -3 -11 -12 -8 -20 3 -9 0 -15 -7 -15 -7 0 -22 -6 -32 -14 -16 -12 -17 -18 -8 -38 9 -20 8 -25 -4 -25 -8 0 -20 11 -26 24 -12 26 -34 27 -50 2 -8 -13 -6 -24 7 -43 14 -23 20 -25 39 -15 18 9 20 9 10 -2 -7 -7 -13 -20 -13 -29 0 -22 -21 -41 -34 -31 -6 5 -21 5 -33 0 -28 -10 -32 -56 -6 -66 10 -4 25 -14 33 -22 13 -13 13 -14 -2 -8 -13 5 -19 0 -24 -18 -3 -13 -3 -30 1 -37 3 -7 -1 -3 -10 9 -14 19 -20 20 -41 11 -29 -13 -31 -41 -6 -66 23 -23 18 -40 -21 -74 -29 -24 -30 -28 -18 -51 17 -33 7 -74 -25 -99 -29 -24 -31 -42 -3 -61 13 -10 17 -17 9 -22 -6 -4 -10 -15 -8 -24 2 -10 -10 -29 -27 -43 -29 -25 -29 -26 -11 -53 10 -16 15 -36 12 -50 -5 -18 -2 -22 17 -20 12 1 15 0 6 -2 -9 -2 -27 -15 -40 -29 l-22 -24 24 -27 c13 -14 18 -23 12 -19 -10 5 -13 -3 -13 -31 0 -22 -5 -44 -10 -49 -7 -7 -8 -30 -2 -67 8 -49 7 -59 -10 -73 -10 -10 -18 -25 -18 -35 0 -23 42 -52 64 -43 32 12 18 -39 -19 -69 -29 -23 -34 -32 -29 -55 4 -15 11 -33 17 -40 7 -9 7 -16 -1 -24 -7 -7 -12 -19 -12 -27 0 -10 10 -6 33 15 l32 29 -33 -36 c-27 -30 -32 -41 -26 -65 4 -16 12 -36 18 -44 6 -8 -5 -2 -25 13 -35 26 -36 26 -52 9 -24 -26 -21 -47 10 -67 25 -17 27 -17 45 6 11 13 17 19 14 12 -4 -6 -2 -14 2 -17 10 -6 46 30 55 54 4 12 6 11 6 -3 1 -10 -12 -30 -29 -44 -34 -28 -40 -68 -13 -90 10 -8 3 -6 -15 4 -33 18 -33 18 -52 -7 -26 -33 -25 -46 6 -66 25 -17 26 -17 47 7 12 14 18 19 13 12 -11 -17 5 -17 24 0 8 6 6 2 -5 -11 -13 -16 -15 -26 -8 -33 15 -15 4 -49 -13 -42 -19 7 -54 -25 -54 -49 0 -10 11 -24 26 -30 22 -10 28 -9 47 13 12 14 18 19 13 12 -13 -20 1 -28 21 -12 17 13 17 13 1 -6 -10 -12 -14 -30 -11 -46 4 -24 2 -26 -19 -22 -18 3 -27 -1 -35 -20 -13 -27 -7 -37 32 -51 13 -5 24 -1 35 13 14 20 15 19 17 -19 0 -22 -2 -40 -6 -40 -12 0 -42 -60 -36 -71 14 -21 49 -27 62 -10 9 11 12 12 13 3 0 -7 5 -10 11 -6 6 3 10 -1 9 -12 -4 -35 0 -43 23 -47 14 -3 8 -5 -15 -6 -20 0 -44 -9 -53 -18 -16 -16 -16 -18 5 -35 28 -23 60 -23 61 0 1 14 2 15 6 1 2 -9 14 -21 26 -27 12 -6 16 -11 10 -11 -7 -1 -13 -10 -13 -20 0 -10 -7 -21 -15 -25 -39 -14 -4 -66 44 -66 12 0 21 -4 21 -10 0 -6 9 -19 19 -29 19 -19 19 -20 1 -26 -44 -14 -34 -57 19 -78 35 -14 84 -67 62 -67 -5 0 -13 -10 -17 -22 -7 -24 25 -58 55 -58 30 0 47 -32 43 -78 -4 -41 -3 -42 25 -42 36 0 77 -43 70 -72 -8 -30 2 -48 28 -48 13 0 34 -13 48 -29 14 -17 28 -27 31 -24 3 4 6 -3 6 -15 0 -13 12 -28 31 -39 l31 -18 -34 -5 c-30 -5 -33 -8 -33 -40 0 -33 2 -35 35 -35 26 0 35 5 40 20 6 24 30 31 30 9 0 -9 10 -24 21 -33 l21 -17 -26 -17 c-31 -21 -34 -43 -6 -52 27 -9 40 1 40 33 l1 27 21 -25 c11 -14 26 -24 33 -22 21 4 13 -32 -12 -51 -38 -31 -25 -57 29 -57 18 0 20 5 16 45 -2 25 0 45 4 45 5 0 8 -9 8 -19 0 -35 20 -34 22 1 1 28 2 26 7 -12 5 -35 10 -45 23 -44 10 1 16 -2 13 -6 -3 -5 -1 -11 5 -15 6 -3 -3 -17 -20 -32 -50 -41 -37 -73 30 -73 23 0 30 5 35 30 4 17 10 28 15 25 5 -3 11 7 13 22 2 18 5 10 6 -19 1 -37 5 -48 18 -48 29 0 83 -49 83 -76 0 -32 23 -31 49 2 12 15 21 22 21 17 0 -5 -5 -14 -11 -20 -13 -13 28 -46 45 -36 6 3 5 0 -1 -8 -7 -7 -13 -22 -13 -32 0 -15 5 -18 25 -13 24 6 25 5 13 -14 -7 -11 -16 -20 -19 -20 -3 0 -21 -29 -38 -65 -20 -40 -38 -65 -48 -65 -27 0 -53 31 -53 62 0 27 -2 29 -39 26 -48 -2 -71 15 -71 53 0 26 -4 29 -31 29 -42 0 -87 34 -91 68 -2 20 -11 30 -34 37 -47 15 -63 33 -66 73 -3 34 -5 37 -36 38 -42 0 -57 17 -53 59 2 34 1 35 -32 35 -38 0 -62 25 -69 71 -1 13 -10 24 -18 24 -8 0 -21 4 -27 8 -24 15 -13 27 23 27 34 0 35 1 32 33 -3 30 -6 32 -45 35 -39 3 -42 1 -45 -25 l-3 -28 -25 40 c-34 55 -34 55 -15 55 12 0 16 8 13 33 -3 28 -7 32 -35 35 -22 2 -33 -1 -33 -10 0 -7 -11 3 -24 22 -19 29 -21 36 -10 48 18 17 18 51 0 58 -7 3 -25 6 -40 8 -36 4 -40 10 -46 69 -4 45 -8 52 -28 55 -31 5 -62 57 -62 105 0 31 -5 40 -26 49 -33 15 -66 80 -58 112 4 19 0 28 -20 41 -33 22 -35 49 -3 40 37 -12 39 -11 48 20 10 35 4 42 -39 51 -27 6 -33 3 -40 -17 -8 -20 -13 -12 -40 59 -17 45 -29 88 -26 95 3 8 -2 20 -11 27 -8 7 -15 21 -15 31 0 18 2 18 23 4 22 -14 24 -14 35 10 17 37 15 43 -18 60 -28 14 -30 14 -42 -7 -12 -22 -12 -22 -19 12 -4 19 -11 46 -15 60 -7 23 -6 24 10 10 16 -13 20 -12 32 5 19 25 18 31 -8 50 -21 14 -24 14 -35 -1 -13 -17 -15 -13 -28 54 -6 31 -5 33 12 24 15 -8 22 -6 31 9 18 28 15 46 -10 63 -15 11 -25 12 -34 6 -13 -11 -24 15 -24 59 0 19 3 21 14 12 10 -9 17 -6 30 13 22 34 20 41 -11 66 -18 14 -29 17 -33 9 -7 -11 -20 37 -20 74 0 20 1 20 13 2 13 -17 15 -17 30 6 22 30 21 42 -2 63 -17 16 -19 16 -27 -1 -5 -12 -10 2 -15 47 -7 72 -4 84 16 56 14 -19 35 -14 35 8 0 7 -11 23 -25 36 -32 30 -32 70 -1 99 21 20 23 26 13 42 -7 11 -18 17 -24 14 -9 -3 -13 8 -13 36 0 31 3 40 14 36 18 -7 46 23 46 49 0 10 -6 27 -14 36 -10 14 -15 15 -26 5 -10 -10 -12 -7 -6 13 3 14 6 36 6 49 0 16 4 21 15 17 21 -8 31 39 14 60 -18 22 -12 73 12 107 14 19 17 32 11 43 -13 24 5 96 29 117 17 13 19 20 10 31 -16 20 4 96 30 114 14 9 17 20 13 38 -4 16 4 53 21 100 22 61 29 72 39 60 10 -14 14 -13 34 2 20 16 22 22 13 46 -6 15 -15 24 -21 21 -13 -8 -13 -4 6 40 11 26 18 34 24 26 6 -10 12 -10 29 -2 25 14 26 20 5 49 -14 20 -14 25 2 51 10 16 28 34 41 40 16 8 24 19 23 34 -3 38 -1 44 35 87 19 23 35 47 35 53 0 7 14 32 30 57 25 38 35 45 62 45 29 0 33 4 36 27 3 22 0 27 -12 22 -24 -9 -19 7 14 46 22 26 30 30 30 18 0 -19 8 -22 34 -12 18 7 23 64 5 64 -6 0 -1 14 11 30 18 25 25 28 36 19 11 -9 17 -9 28 0 22 18 27 51 8 51 -12 0 -8 8 13 30 15 16 31 28 34 28 3 -1 17 2 29 6 16 5 22 14 19 26 -6 25 105 134 121 118 6 -6 22 -8 36 -4 19 5 26 13 26 30 0 14 -6 27 -12 29 -18 8 30 45 62 49 17 2 26 10 28 26 3 21 58 72 79 72 5 0 19 11 31 25 22 25 42 33 42 16 0 -5 7 -11 15 -15 21 -8 45 21 45 53 0 30 41 61 80 61 13 0 24 8 27 18 2 10 30 32 62 50 44 24 71 32 110 32 48 0 51 2 51 25 0 30 61 65 115 65 21 0 34 5 33 12 -2 6 8 17 22 25 32 17 33 16 20 -6z m2759 -24 c6 -8 8 -17 5 -20 -9 -8 -44 11 -44 23 0 15 26 12 39 -3z m-3180 -42 c20 -34 20 -35 1 -45 -28 -15 -38 -12 -57 16 -16 26 -16 27 6 45 13 11 25 19 26 19 2 0 12 -16 24 -35z m3251 -6 c0 -11 -27 -12 -34 0 -3 4 -3 11 0 14 8 8 34 -3 34 -14z m-3339 -36 c7 -16 15 -31 17 -34 1 -3 -9 -14 -23 -23 -25 -17 -28 -17 -46 0 -25 23 -24 48 4 67 30 21 32 21 48 -10z m3394 -2 c3 -5 1 -12 -4 -15 -13 -8 -42 4 -35 15 7 12 31 12 39 0z m61 -45 c10 -8 16 -17 12 -21 -11 -11 -48 5 -48 21 0 18 11 18 36 0z m-3541 -23 c29 -34 30 -42 8 -59 -15 -11 -22 -9 -45 14 -31 28 -34 42 -16 60 18 18 26 15 53 -15z m-66 -78 c0 -5 -10 -18 -24 -27 -23 -17 -24 -17 -44 8 -26 34 -26 42 2 64 22 18 22 18 44 -8 12 -15 22 -31 22 -37z m3679 37 c3 -9 -2 -13 -14 -10 -9 1 -19 9 -22 16 -3 9 2 13 14 10 9 -1 19 -9 22 -16z m66 -54 c-7 -10 -15 -10 -33 1 -7 5 -11 14 -7 20 5 7 12 7 26 -1 10 -7 16 -16 14 -20z m-3846 -18 c27 -36 27 -42 2 -58 -18 -11 -24 -9 -52 18 -29 30 -30 32 -13 50 25 27 37 25 63 -10z m3896 -25 c11 -8 17 -18 14 -21 -11 -10 -48 7 -48 22 0 18 10 17 34 -1z m-3584 -9 c0 -2 -7 -9 -15 -16 -13 -11 -14 -10 -9 4 5 14 24 23 24 12z m-390 -31 c23 -24 23 -25 5 -45 -24 -27 -41 -25 -61 5 -16 24 -16 27 1 45 23 25 27 25 55 -5z m4039 -19 c9 -10 9 -16 1 -21 -12 -7 -40 11 -40 26 0 14 26 10 39 -5z m-4116 -97 l-20 -21 -29 25 -29 25 24 26 23 25 26 -30 25 -30 -20 -20z m4029 54 c19 -17 26 -59 8 -48 -5 3 -10 15 -10 26 0 12 -7 19 -19 19 -11 0 -23 5 -26 10 -10 16 27 11 47 -7z m142 -19 c10 -26 -4 -37 -25 -18 -10 9 -16 21 -13 25 9 15 31 10 38 -7z m-4252 -51 c26 -25 27 -28 11 -45 -22 -25 -38 -23 -62 9 -20 24 -20 27 -5 45 22 23 23 23 56 -9z m4317 -7 c9 -10 9 -16 1 -21 -16 -10 -40 2 -40 20 0 19 24 20 39 1z m-100 -30 c21 -22 21 -24 4 -28 -18 -4 -55 31 -46 44 7 13 19 9 42 -16z m-4284 -85 c-20 -20 -29 -23 -42 -15 -35 22 -39 42 -13 69 l24 25 28 -27 28 -27 -25 -25z m4434 55 c9 -10 9 -16 1 -21 -16 -10 -40 2 -40 20 0 19 24 20 39 1z m-86 -67 c-5 -16 -8 -18 -14 -7 -5 7 -9 21 -9 32 0 15 3 16 14 7 8 -7 12 -21 9 -32z m145 9 c18 -18 15 -38 -6 -38 -18 0 -45 34 -35 44 10 10 28 7 41 -6z m-4565 -36 c16 -15 16 -16 -4 -38 -20 -21 -23 -22 -45 -7 -28 18 -30 30 -8 54 17 19 26 17 57 -9z m4491 -37 c9 -13 16 -35 15 -47 0 -22 -1 -22 -12 -4 -7 10 -22 30 -34 44 -28 30 -28 32 -4 32 10 0 26 -11 35 -25z m130 -1 c7 -19 -1 -34 -19 -34 -15 0 -28 27 -19 41 9 14 31 10 38 -7z m-4696 -30 c27 -19 28 -36 3 -58 -18 -16 -20 -16 -47 8 -28 24 -29 24 -10 45 23 25 25 25 54 5z m4749 -33 c10 -16 9 -22 -4 -32 -13 -11 -17 -10 -29 6 -10 13 -11 22 -3 32 15 18 22 16 36 -6z m-104 -44 c24 -36 5 -55 -21 -22 -20 26 -21 45 -3 45 5 0 16 -10 24 -23z m-4701 -15 c15 -13 16 -16 2 -37 -16 -24 -44 -24 -64 0 -9 10 -7 20 5 39 17 26 25 26 57 -2z m4858 -22 c0 -13 -33 -21 -43 -11 -16 16 12 44 29 30 8 -6 14 -15 14 -19z m50 -77 c0 -7 -2 -13 -4 -13 -2 0 -11 -3 -19 -6 -10 -3 -20 3 -27 17 -11 19 -10 25 5 35 15 11 20 11 31 -4 7 -9 14 -23 14 -29z m-4971 20 l21 -18 -24 -30 c-23 -29 -24 -29 -50 -12 l-27 18 21 29 c25 35 30 36 59 13z m4844 -23 c10 -17 13 -30 8 -30 -6 0 -11 -8 -11 -17 0 -10 -9 0 -20 21 -29 58 -9 80 23 26z m167 -55 c0 -18 -32 -28 -42 -13 -5 8 -1 18 9 25 18 14 33 9 33 -12z m-5085 -11 c24 -16 24 -17 8 -45 -20 -34 -24 -35 -53 -11 -22 18 -22 19 -5 45 20 32 19 31 50 11z m4982 -70 c-10 -10 -14 -10 -23 2 -6 8 -17 14 -25 14 -12 0 -12 2 0 9 11 7 11 10 0 16 -9 6 -8 10 7 15 25 10 58 -36 41 -56z m133 0 c-16 -19 -26 -18 -34 3 -10 25 24 50 37 28 5 -10 4 -21 -3 -31z m-4870 1 c0 -2 -10 -9 -22 -15 -22 -11 -22 -10 -4 4 21 17 26 19 26 11z m-295 -29 c18 -13 18 -17 6 -40 -16 -29 -28 -32 -55 -11 -16 12 -18 19 -8 40 13 28 29 31 57 11z m5200 -52 c-17 -13 -21 -13 -32 3 -18 23 -16 28 10 40 18 9 24 7 32 -9 7 -16 5 -24 -10 -34z m-101 -10 c14 -30 14 -36 2 -31 -8 3 -16 2 -18 -2 -2 -5 -12 1 -23 12 -11 11 -14 17 -8 13 9 -5 11 -2 7 9 -4 9 -13 14 -20 11 -8 -3 -14 -3 -14 0 0 4 38 22 51 23 3 1 13 -15 23 -35z m-5134 -44 c0 -3 -7 -14 -15 -24 -12 -16 -19 -18 -40 -8 -28 13 -31 23 -13 52 11 18 14 18 40 2 15 -9 28 -19 28 -22z m5283 16 c6 -15 -11 -36 -29 -36 -22 0 -28 23 -9 37 24 17 32 16 38 -1z m-113 -68 c0 -16 6 -28 13 -28 23 0 48 -66 37 -96 -6 -14 -14 -23 -19 -20 -5 4 -12 0 -14 -6 -4 -9 -6 -10 -6 -1 -1 6 4 15 9 18 14 9 13 48 -2 63 -7 7 -21 12 -32 12 -15 0 -17 3 -8 8 7 5 10 16 6 25 -3 9 -9 15 -13 12 -4 -2 -3 11 3 30 12 37 26 28 26 -17z m148 -10 c4 -21 -37 -36 -49 -17 -10 17 9 41 30 37 9 -2 17 -11 19 -20z m-5373 -18 c9 -14 -17 -50 -36 -50 -9 0 -22 7 -29 15 -10 12 -9 20 4 40 14 21 20 23 36 15 10 -6 22 -14 25 -20z m5410 -50 c8 -25 -1 -40 -25 -40 -23 0 -38 39 -19 51 22 14 37 10 44 -11z m-5471 -33 c14 -10 15 -18 7 -40 -12 -31 -12 -31 -45 -16 -21 10 -23 15 -14 40 11 32 25 36 52 16z m5509 -56 c5 -21 -23 -38 -43 -26 -16 10 -11 43 8 48 23 5 29 1 35 -22z m-124 -27 c10 -22 9 -28 -6 -39 -14 -10 -19 -9 -33 8 -10 11 -15 29 -12 39 7 27 37 22 51 -8z m-5422 -12 c10 -6 10 -15 1 -40 -13 -35 -19 -37 -48 -22 -16 9 -17 15 -8 40 10 30 30 38 55 22z m5565 -54 c-14 -14 -42 -3 -42 16 0 19 44 26 48 7 2 -7 -1 -18 -6 -23z m-178 7 c3 -8 1 -15 -4 -15 -6 0 -10 7 -10 15 0 8 2 15 4 15 2 0 6 -7 10 -15z m-5164 -34 c0 -3 -4 -12 -9 -19 -6 -10 -10 -7 -13 11 -4 18 -1 24 9 20 7 -3 13 -8 13 -12z m5257 -77 c-2 -2 -12 -5 -23 -7 -10 -1 -26 -7 -34 -12 -13 -8 -13 -6 -1 8 10 13 11 24 2 48 -9 26 -8 30 4 25 8 -3 18 0 21 6 5 7 13 -4 21 -27 7 -21 12 -40 10 -41z m118 36 c-10 -16 -55 -12 -55 5 0 22 43 37 53 19 4 -8 5 -19 2 -24z m-5645 20 c17 -9 18 -14 8 -35 -7 -16 -19 -25 -34 -25 -30 0 -37 13 -23 44 13 29 21 31 49 16z m5678 -82 c-4 -28 -45 -38 -55 -13 -7 19 12 35 40 35 13 0 18 -6 15 -22z m-5710 -16 c17 -11 -1 -62 -22 -62 -36 0 -45 11 -34 41 10 29 31 37 56 21z m5602 -84 c17 -55 20 -79 13 -99 -8 -21 -7 -28 8 -37 10 -7 23 -30 29 -53 10 -35 9 -44 -7 -61 -17 -19 -17 -21 9 -41 35 -28 41 -86 13 -117 -20 -22 -20 -22 6 -45 31 -26 49 -85 26 -85 -7 0 -22 -9 -32 -20 -17 -19 -17 -21 0 -40 11 -13 25 -18 37 -14 16 5 18 -1 18 -38 0 -40 -3 -45 -32 -56 l-32 -12 24 -25 c13 -14 30 -23 37 -21 9 4 13 -6 13 -34 0 -22 -5 -40 -11 -40 -6 0 -24 -9 -40 -21 -28 -20 -29 -20 -29 -1 0 11 7 25 15 32 19 16 19 34 -1 51 -14 11 -15 26 -10 81 3 37 2 69 -3 72 -4 3 -7 24 -5 47 4 41 3 42 -16 24 -11 -10 -20 -13 -20 -7 0 7 4 12 8 12 5 0 18 9 31 21 20 19 21 23 7 43 -24 38 -30 90 -12 105 24 20 19 39 -14 56 -16 9 -30 18 -30 21 0 3 4 3 9 0 5 -4 7 11 4 34 -4 26 -2 40 6 40 19 0 12 49 -9 60 -11 6 -23 22 -26 35 -7 27 -19 33 -27 13 -4 -9 -6 -8 -6 2 -1 8 9 20 22 25 29 13 33 46 8 69 -18 16 -23 17 -38 5 -16 -13 -17 -12 -5 3 8 9 10 27 6 42 -5 20 -2 26 10 26 9 0 16 5 16 10 0 25 10 5 30 -62z m-76 47 c-4 -8 -8 -15 -10 -15 -2 0 -4 7 -4 15 0 8 4 15 10 15 5 0 7 -7 4 -15z m-5284 -5 c0 -5 -2 -10 -4 -10 -3 0 -8 5 -11 10 -3 6 -1 10 4 10 6 0 11 -4 11 -10z m5488 -24 c4 -19 -13 -36 -35 -36 -18 0 -27 41 -12 51 21 13 43 6 47 -15z m-5761 -34 c21 -13 4 -52 -23 -52 -29 0 -34 9 -23 38 9 23 25 28 46 14z m5786 -54 c7 -23 -7 -38 -34 -38 -17 0 -33 36 -23 52 11 18 52 8 57 -14z m-5816 -36 c18 -11 4 -52 -18 -52 -23 0 -32 15 -24 40 7 21 22 25 42 12z m253 -12 c0 -5 -7 -7 -15 -4 -8 4 -15 8 -15 10 0 2 7 4 15 4 8 0 15 -4 15 -10z m5583 -42 c4 -13 1 -26 -6 -30 -22 -14 -42 -3 -45 25 -3 23 0 27 21 27 17 0 26 -7 30 -22z m-5593 0 c0 -11 -12 -10 -30 2 -12 7 -10 9 8 7 12 0 22 -5 22 -9z m-267 -34 c11 -4 13 -13 8 -32 -13 -48 -63 -38 -54 11 5 27 17 32 46 21z m5885 -65 c3 -28 -16 -43 -43 -33 -15 6 -21 45 -8 58 16 16 48 1 51 -25z m-5900 -38 c17 -10 5 -61 -13 -61 -26 0 -44 12 -39 26 2 8 6 21 9 29 5 17 23 19 43 6z m5920 -63 c2 -19 -2 -28 -17 -33 -29 -9 -41 1 -41 36 0 27 3 30 28 27 21 -2 28 -9 30 -30z m-5938 -40 c0 -5 0 -21 0 -38 0 -27 -3 -30 -31 -30 -24 0 -30 3 -25 16 3 9 6 27 6 40 0 21 4 25 25 22 14 -2 25 -6 25 -10z m5732 -23 c3 -13 1 -22 -3 -19 -9 5 -13 44 -5 44 2 0 6 -11 8 -25z m222 -21 c12 -32 6 -44 -23 -44 -30 0 -50 28 -36 50 10 16 52 12 59 -6z m-5967 -100 c-7 -44 -10 -47 -34 -40 -15 5 -18 13 -15 41 4 30 8 35 29 35 24 0 25 -3 20 -36z m5983 -8 c0 -33 -38 -46 -57 -20 -22 31 -16 44 22 44 30 0 35 -3 35 -24z m-5740 -11 c0 -8 -2 -15 -4 -15 -2 0 -6 7 -10 15 -3 8 -1 15 4 15 6 0 10 -7 10 -15z m-262 -98 c3 -34 1 -37 -22 -37 -28 0 -29 2 -20 49 9 46 38 38 42 -12z m6022 13 c0 -27 -3 -30 -30 -30 -27 0 -30 3 -30 30 0 27 3 30 30 30 27 0 30 -3 30 -30z m-5771 -52 c-1 -18 -2 -19 -6 -5 -4 15 -7 16 -21 5 -15 -12 -16 -11 -3 5 19 24 31 21 30 -5z m5769 -40 c-2 -17 -10 -23 -28 -23 -18 0 -26 6 -28 23 -3 19 1 22 28 22 27 0 31 -3 28 -22z m-5771 -10 c-3 -8 -6 -5 -6 6 -1 11 2 17 5 13 3 -3 4 -12 1 -19z m-247 -3 c0 -16 -29 -34 -46 -28 -7 2 -10 13 -7 23 6 24 53 28 53 5z m6020 -75 c0 -27 -3 -30 -30 -30 -27 0 -30 3 -30 30 0 27 3 30 30 30 27 0 30 -3 30 -30z m-6030 -19 c0 -34 -12 -45 -40 -36 -14 4 -20 15 -20 36 0 26 3 29 30 29 27 0 30 -3 30 -29z m5793 -61 c11 -13 10 -13 -5 -1 -10 7 -17 25 -17 40 l2 26 4 -25 c3 -14 10 -32 16 -40z m83 -9 c12 9 14 1 14 -46 0 -57 0 -58 -19 -41 -15 14 -24 15 -40 6 -17 -9 -21 -8 -21 5 0 10 -5 14 -12 10 -7 -4 -5 0 5 8 15 12 17 23 11 53 l-7 38 28 -22 c21 -17 31 -19 41 -11z m154 -5 c0 -13 -7 -26 -15 -30 -25 -9 -45 4 -45 30 0 20 5 24 30 24 25 0 30 -4 30 -24z m-6032 -33 c3 -27 0 -33 -16 -33 -12 0 -22 9 -26 23 -10 39 -7 49 17 45 17 -2 23 -11 25 -35z m5775 -56 c-3 -14 2 -29 13 -38 16 -13 17 -12 10 16 l-7 30 20 -32 c22 -34 39 -41 58 -22 9 9 12 -3 12 -46 0 -43 -3 -55 -12 -46 -17 17 -45 13 -68 -10 l-21 -21 7 21 c4 14 2 21 -7 21 -7 0 -2 7 10 16 28 20 28 35 -3 64 -24 23 -32 50 -18 63 10 11 11 9 6 -16z m257 -8 c0 -27 -3 -30 -27 -27 -22 2 -29 9 -31 31 -3 24 0 27 27 27 28 0 31 -3 31 -31z m-6020 -40 c0 -26 -3 -30 -22 -27 -17 2 -24 11 -26 31 -3 23 0 27 22 27 22 0 26 -4 26 -31z m6018 -33 c10 -10 -14 -36 -33 -36 -28 0 -38 12 -29 35 5 12 14 15 33 10 14 -4 27 -8 29 -9z m-6010 -54 c3 -18 -2 -22 -22 -22 -19 0 -26 5 -26 19 0 36 43 38 48 3z m5746 -42 c10 -13 9 -13 -6 -1 -10 7 -18 21 -17 30 0 13 1 14 6 1 3 -8 11 -22 17 -30z m256 11 c0 -24 -14 -41 -35 -41 -27 0 -39 14 -31 35 6 16 66 21 66 6z m-169 -33 c16 10 19 9 19 -7 0 -11 -4 -22 -9 -26 -5 -3 -7 -22 -4 -43 l6 -37 -25 23 c-20 18 -30 21 -49 13 -21 -7 -25 -6 -25 9 0 10 3 17 7 14 12 -7 20 28 9 41 -6 8 -6 15 2 23 9 9 16 8 30 -5 16 -14 23 -15 39 -5z m-5833 -30 c3 -24 0 -28 -22 -28 -22 0 -26 4 -26 31 0 26 3 30 23 27 16 -2 23 -11 25 -30z m5992 -32 c0 -29 -13 -46 -35 -46 -29 0 -38 13 -30 40 8 24 65 29 65 6z m-260 0 c0 -2 -7 -6 -15 -10 -8 -3 -15 -1 -15 4 0 6 7 10 15 10 8 0 15 -2 15 -4z m-5453 -32 c2 -13 1 -15 -4 -4 -3 8 -11 19 -17 23 -7 6 -6 7 4 4 8 -2 16 -12 17 -23z m-265 -18 c3 -16 0 -27 -9 -31 -20 -7 -33 2 -33 24 0 38 35 43 42 7z m5709 -13 c13 -16 12 -17 -3 -4 -10 7 -18 15 -18 17 0 8 8 3 21 -13z m88 -24 c18 10 21 9 21 -9 0 -11 -6 -23 -14 -26 -12 -4 -12 -11 -4 -29 6 -14 7 -29 1 -39 -8 -15 -11 -13 -23 9 -11 21 -20 26 -40 22 -21 -5 -26 -2 -26 14 0 10 4 19 9 19 4 0 7 8 6 18 -1 9 -1 26 0 36 1 18 2 18 25 -3 20 -19 28 -21 45 -12z m147 1 c24 0 14 -54 -11 -58 -31 -4 -44 10 -38 41 4 19 10 26 20 23 8 -3 21 -6 29 -6z m-5932 -46 c11 -28 7 -35 -16 -32 -30 4 -39 48 -10 48 11 0 23 -7 26 -16z m283 -56 c-3 -8 -6 -5 -6 6 -1 11 2 17 5 13 3 -3 4 -12 1 -19z m5367 6 c3 -8 2 -12 -4 -9 -6 3 -10 10 -10 16 0 14 7 11 14 -7z m262 0 c16 -4 19 -12 16 -35 -7 -46 -62 -36 -62 12 0 29 8 33 46 23z m-157 -47 c36 13 39 6 11 -29 -13 -17 -16 -28 -9 -35 7 -7 7 -24 -1 -52 -8 -30 -17 -42 -35 -47 -29 -7 -29 -7 -11 -42 15 -31 4 -92 -17 -92 -29 -1 -37 -15 -25 -47 17 -45 0 -79 -45 -87 -34 -6 -35 -8 -26 -38 5 -17 13 -34 18 -37 6 -4 3 -22 -8 -46 -11 -25 -20 -35 -25 -27 -4 7 -20 12 -37 12 -26 0 -29 -3 -29 -32 0 -42 13 -63 34 -55 13 5 11 -4 -9 -44 -23 -45 -27 -48 -41 -34 -19 19 -74 20 -74 1 0 -7 3 -28 6 -45 6 -28 10 -32 31 -26 22 5 23 4 12 -17 -7 -13 -18 -27 -25 -31 -8 -4 -14 -15 -14 -23 0 -28 -45 -93 -67 -99 -17 -4 -23 -13 -23 -31 0 -43 -29 -82 -67 -89 -31 -5 -33 -9 -33 -44 0 -24 -8 -48 -20 -62 -10 -13 -19 -18 -20 -11 0 7 -15 12 -40 12 -38 0 -40 -2 -40 -31 0 -22 5 -32 20 -36 26 -7 26 -7 -12 -55 -32 -38 -33 -39 -38 -16 -4 17 -14 24 -39 26 -30 3 -32 2 -29 -25 2 -22 9 -29 32 -33 23 -4 26 -7 15 -16 -8 -6 -22 -14 -31 -17 -10 -4 -18 -14 -18 -24 0 -23 -49 -73 -72 -73 -10 0 -18 -7 -18 -17 0 -20 -68 -93 -87 -93 -7 0 -13 -6 -13 -13 0 -8 -9 -22 -20 -32 -20 -18 -20 -17 -20 12 0 34 -14 43 -61 43 -27 0 -29 -3 -29 -36 0 -30 4 -37 31 -46 23 -8 28 -13 19 -22 -6 -6 -15 -12 -21 -12 -5 -1 -13 -2 -19 -3 -5 0 -10 -7 -10 -15 0 -18 -63 -66 -87 -66 -10 0 -23 -10 -28 -22 -17 -37 -37 -35 -33 3 2 29 0 34 -20 37 -13 2 -25 -3 -28 -13 -5 -12 -12 -7 -30 25 -26 46 -29 54 -15 45 6 -3 13 1 18 8 4 8 20 22 36 32 23 15 25 20 15 34 -10 13 -10 14 2 4 21 -19 30 -16 30 10 0 17 2 19 10 7 9 -15 9 -16 25 35 2 8 10 15 17 14 10 0 10 -2 1 -6 -8 -2 -13 -22 -13 -44 0 -34 3 -39 23 -39 13 0 32 6 43 14 19 14 19 15 -5 40 l-24 25 24 21 c21 17 21 19 4 13 -11 -3 -17 -3 -14 1 13 14 52 15 66 1 8 -8 30 -15 49 -15 33 0 34 1 34 40 0 29 -5 43 -17 47 -14 5 -12 10 11 28 26 21 30 21 57 8 16 -8 33 -12 39 -8 14 8 13 48 -2 63 -8 8 -8 15 0 25 7 8 8 17 4 21 -4 4 -1 6 7 4 10 -2 17 8 22 27 l7 30 1 -33 c1 -24 7 -35 24 -41 12 -5 26 -6 30 -2 13 13 -11 61 -30 61 -14 0 -12 4 7 13 14 8 24 18 23 23 -1 6 7 11 18 11 10 1 19 -2 19 -8 0 -5 16 -9 35 -9 30 0 35 3 35 24 0 14 -7 32 -16 41 -13 12 -14 19 -5 28 6 6 12 31 13 57 1 36 2 39 5 12 5 -38 22 -33 25 6 0 16 3 8 7 -18 6 -45 6 -45 49 -48 44 -3 48 1 36 45 -4 14 -17 24 -34 28 -35 8 -30 35 6 35 19 0 24 5 24 24 0 13 9 35 20 49 11 14 20 30 20 36 0 6 12 8 30 5 27 -6 30 -4 30 20 0 15 -5 37 -11 48 -8 15 -8 19 1 13 13 -8 41 24 36 40 -2 6 12 9 34 7 l38 -4 -5 41 c-7 49 12 101 37 101 31 0 63 34 56 58 -4 12 -12 22 -17 22 -6 0 -5 9 2 22 6 12 15 33 20 47 4 16 8 19 8 9 1 -21 3 -21 35 -7 45 21 40 69 -7 69 -19 0 -19 1 -4 13 9 6 22 26 28 42 10 23 13 26 16 12 4 -13 10 -16 26 -11 53 16 63 50 18 65 -24 9 -28 15 -27 47 l1 38 36 -10 c20 -5 44 -6 53 -3 15 6 15 9 1 37 -9 17 -23 34 -31 37 -17 6 -17 13 -4 48 8 22 12 24 29 13 15 -9 25 -9 46 0 25 12 26 14 12 35 -10 15 -24 22 -45 21 -24 -2 -29 2 -24 15 3 9 10 19 16 23 8 5 7 14 -2 29 -10 15 -10 19 -1 13 9 -5 10 -1 6 17 -6 22 -4 21 17 -6 22 -28 26 -29 55 -18z m-5741 -5 c4 -26 -22 -31 -32 -6 -10 26 -7 36 12 32 9 -2 18 -13 20 -26z m302 -52 c0 -5 -2 -10 -4 -10 -3 0 -8 5 -11 10 -3 6 -1 10 4 10 6 0 11 -4 11 -10z m974 -4 c105 -32 161 -108 154 -208 -2 -32 -9 -62 -14 -67 -5 -6 -78 -7 -170 -4 l-162 6 -5 46 c-6 54 -42 91 -88 91 -37 0 -37 16 2 63 64 78 173 106 283 73z m4356 10 c0 -2 -9 -6 -20 -9 -11 -3 -20 -1 -20 4 0 5 9 9 20 9 11 0 20 -2 20 -4z m259 -5 c21 -14 4 -51 -24 -51 -29 0 -38 13 -30 40 7 21 30 26 54 11z m-5870 -31 c9 -26 8 -30 -8 -30 -30 0 -34 57 -4 60 0 0 6 -13 12 -30z m5582 -7 c13 -16 12 -17 -3 -4 -17 13 -22 21 -14 21 2 0 10 -8 17 -17z m-5301 3 c0 -2 -8 -10 -17 -17 -16 -13 -17 -12 -4 4 13 16 21 21 21 13z m5568 -55 c9 -5 11 -17 7 -34 -6 -23 -11 -26 -34 -21 -36 9 -40 15 -30 42 8 22 33 28 57 13z m-5818 -43 c0 -10 -6 -18 -14 -18 -18 0 -29 42 -13 52 13 8 27 -9 27 -34z m5540 25 c-14 -3 -28 -10 -32 -17 -5 -7 -8 -7 -8 0 0 17 12 24 39 23 l26 -2 -25 -4z m-810 -25 c70 -36 110 -110 110 -205 0 -43 0 -43 -36 -43 -21 0 -33 4 -29 10 3 6 18 10 32 10 57 0 10 11 -128 29 -114 16 -155 26 -194 47 -28 15 -51 28 -53 30 -7 5 28 61 55 86 64 61 164 75 243 36z m-4476 -38 c-6 -6 -10 -3 -10 10 0 13 4 16 10 10 7 -7 7 -13 0 -20z m5256 5 c14 -19 14 -19 -2 -6 -10 7 -18 18 -18 24 0 6 1 8 3 6 1 -2 9 -13 17 -24z m-5220 2 c0 -2 -10 -12 -22 -23 l-23 -19 19 23 c18 21 26 27 26 19z m5508 -22 c2 -2 1 -13 -3 -24 -8 -25 -53 -29 -61 -6 -12 29 4 48 34 40 15 -4 29 -8 30 -10z m-5779 -27 c5 -15 4 -26 -3 -30 -13 -9 -21 -1 -31 30 -5 16 -2 22 10 22 8 0 19 -10 24 -22z m5465 -24 c5 -14 4 -15 -9 -4 -17 14 -19 20 -6 20 5 0 12 -7 15 -16z m283 -34 c12 0 14 -6 8 -27 -9 -36 -8 -36 -43 -21 -26 11 -29 16 -21 37 6 15 14 21 25 17 9 -3 23 -6 31 -6z m-5707 -46 c0 -27 -29 -22 -39 6 -7 21 -6 30 2 33 13 5 37 -20 37 -39z m5291 16 c20 -11 40 -24 44 -30 3 -6 -15 -51 -41 -101 l-48 -90 -108 -55 c-59 -29 -116 -54 -125 -54 -10 0 -46 -15 -80 -34 l-62 -33 -22 23 c-37 39 -82 49 -141 29 -27 -9 -52 -14 -55 -12 -2 3 -1 21 3 41 15 82 85 140 184 152 54 7 55 8 80 58 46 91 148 141 269 130 35 -2 81 -14 102 -24z m-4977 -58 c3 -5 -1 -9 -9 -9 -8 0 -12 4 -9 9 3 4 7 8 9 8 2 0 6 -4 9 -8z m5050 0 c3 -5 -1 -9 -9 -9 -8 0 -12 4 -9 9 3 4 7 8 9 8 2 0 6 -4 9 -8z m325 -8 c2 -2 -4 -15 -13 -29 -14 -22 -20 -24 -39 -14 -31 16 -30 15 -17 39 9 17 17 20 38 15 15 -4 29 -8 31 -11z m-5665 -20 c10 -25 7 -34 -9 -34 -8 0 -15 4 -15 9 0 5 -3 16 -6 25 -4 10 -1 16 9 16 8 0 18 -7 21 -16z m303 -16 c-3 -8 -6 -5 -6 6 -1 11 2 17 5 13 3 -3 4 -12 1 -19z m5010 -10 c-3 -7 -5 -2 -5 12 0 14 2 19 5 13 2 -7 2 -19 0 -25z m30 0 c-3 -8 -6 -5 -6 6 -1 11 2 17 5 13 3 -3 4 -12 1 -19z m-2491 -163 c39 -79 54 -155 47 -232 l-6 -53 -101 1 c-56 0 -119 3 -141 7 l-40 8 1 94 c1 110 21 173 87 271 l41 62 38 -44 c21 -24 54 -75 74 -114z m-316 63 c28 -79 41 -180 38 -278 l-3 -84 -75 -28 c-41 -15 -78 -24 -82 -20 -3 4 -14 45 -24 91 -29 147 -2 298 67 372 26 28 32 30 45 18 7 -8 23 -40 34 -71z m544 24 c31 -62 46 -136 46 -230 0 -67 -19 -175 -34 -189 -2 -3 -29 2 -59 11 -81 23 -82 23 -96 -40 -7 -30 -14 -54 -16 -52 -8 8 26 347 40 401 23 89 66 164 87 151 4 -3 19 -26 32 -52z m2526 40 c19 -16 21 -22 11 -40 -14 -27 -23 -27 -49 -4 -16 13 -18 22 -12 40 11 27 21 28 50 4z m-283 -14 c-3 -8 -6 -5 -6 6 -1 11 2 17 5 13 3 -3 4 -12 1 -19z m-5289 -16 c2 -12 -1 -22 -7 -22 -13 0 -32 35 -24 44 12 12 28 0 31 -22z m2286 -50 c11 -35 36 -256 36 -323 0 -4 -25 -19 -56 -33 -53 -25 -57 -25 -70 -9 -42 58 -46 271 -6 350 22 42 59 76 73 67 4 -2 14 -26 23 -52z m963 -13 c32 -63 40 -184 19 -269 -9 -36 -20 -68 -24 -72 -5 -5 -32 -1 -61 8 -29 8 -55 14 -57 11 -2 -2 -11 -21 -19 -43 -13 -33 -15 -34 -10 -9 2 17 11 84 20 150 22 168 31 216 49 259 15 37 17 38 38 24 13 -8 33 -34 45 -59z m-2972 43 c-3 -3 -11 0 -18 7 -9 10 -8 11 6 5 10 -3 15 -9 12 -12z m1823 -49 c6 -21 14 -63 17 -93 3 -30 8 -72 10 -92 5 -36 4 -38 -41 -58 -26 -11 -50 -20 -54 -20 -13 0 -30 77 -30 137 0 67 13 114 43 155 24 33 39 25 55 -29z m3162 53 c0 -2 -11 -6 -25 -8 -13 -3 -22 -1 -19 3 5 9 44 13 44 5z m-1866 -80 c7 -67 -6 -177 -25 -220 -9 -20 -16 -23 -33 -16 -18 6 -23 2 -34 -24 -8 -21 -11 -23 -7 -6 4 14 9 77 14 140 7 111 16 145 49 182 22 26 28 16 36 -56z m71 32 c-2 -18 -6 -64 -9 -103 -5 -75 -13 -105 -27 -105 -16 0 -11 178 6 210 20 39 35 38 30 -2z m1802 16 c-3 -3 -12 -4 -19 -1 -8 3 -5 6 6 6 11 1 17 -2 13 -5z m281 -19 c6 -5 -18 -45 -26 -45 -5 0 -16 6 -26 13 -15 11 -17 17 -7 35 10 19 15 21 34 11 12 -7 23 -13 25 -14z m-5518 -4 c7 -14 7 -22 0 -26 -13 -8 -40 13 -40 31 0 21 28 17 40 -5z m1915 -60 c3 -25 9 -77 15 -116 11 -83 -2 -108 -26 -50 -22 55 -34 137 -27 197 5 45 8 49 19 33 7 -10 16 -38 19 -64z m3262 32 c-3 -10 -5 -2 -5 17 0 19 2 27 5 18 2 -10 2 -26 0 -35z m20 5 c-3 -7 -5 -2 -5 12 0 14 2 19 5 13 2 -7 2 -19 0 -25z m-4920 -30 c-3 -8 -6 -5 -6 6 -1 11 2 17 5 13 3 -3 4 -12 1 -19z m5200 -51 c-18 -28 -29 -30 -52 -13 -17 12 -18 17 -6 40 13 24 15 24 43 10 27 -14 28 -17 15 -37z m-5439 18 c9 -20 9 -25 -3 -25 -12 0 -35 28 -35 44 0 17 28 2 38 -19z m293 -3 c-7 -2 -18 1 -23 6 -8 8 -4 9 13 5 13 -4 18 -8 10 -11z m53 -43 c-3 -5 -11 -3 -19 4 -7 6 -9 14 -4 15 5 2 7 9 3 15 -3 7 1 3 10 -7 8 -10 13 -23 10 -27z m4699 -14 c-3 -9 -8 -14 -10 -11 -3 3 -2 9 2 15 9 16 15 13 8 -4z m-4999 -11 c9 -24 7 -34 -8 -34 -13 0 -26 20 -26 41 0 15 27 10 34 -7z m313 -6 c-3 -8 -6 -5 -6 6 -1 11 2 17 5 13 3 -3 4 -12 1 -19z m5026 8 c15 -11 16 -18 6 -39 -8 -17 -17 -23 -30 -20 -31 9 -42 29 -27 52 15 24 26 26 51 7z m-1880 -16 c29 -11 62 -27 73 -36 17 -14 12 -15 -69 -11 -49 3 -91 7 -94 10 -10 11 7 57 22 57 8 0 38 -9 68 -20z m1564 -12 c-3 -8 -6 -5 -6 6 -1 11 2 17 5 13 3 -3 4 -12 1 -19z m-4740 -10 c-3 -8 -6 -5 -6 6 -1 11 2 17 5 13 3 -3 4 -12 1 -19z m26 -8 c3 -11 1 -18 -4 -14 -5 3 -9 12 -9 20 0 20 7 17 13 -6z m4682 -10 c-3 -5 -14 -10 -24 -10 -9 0 -23 -6 -31 -12 -12 -11 -12 -10 -1 4 7 9 22 19 34 21 12 2 23 5 25 6 2 0 0 -3 -3 -9z m-1129 -35 c8 -45 -3 -104 -21 -111 -7 -3 -23 -1 -34 5 -32 17 -143 112 -138 118 5 4 113 19 164 22 18 1 23 -6 29 -34z m249 14 c5 -6 3 -9 -6 -9 -8 0 -55 -23 -103 -51 -49 -27 -95 -48 -102 -45 -10 4 -14 24 -14 67 l0 61 108 -7 c59 -4 111 -11 117 -16z m-4067 -17 c4 -26 -22 -31 -32 -6 -10 26 -7 36 12 32 9 -2 18 -13 20 -26z m333 11 c13 -16 12 -17 -3 -4 -10 7 -18 15 -18 17 0 8 8 3 21 -13z m4921 -7 c16 -11 16 -15 2 -34 -18 -26 -24 -27 -48 -9 -16 12 -17 16 -5 35 16 25 27 27 51 8z m-1603 -67 c121 -93 119 -114 -13 -113 -128 1 -206 31 -206 80 0 27 88 92 127 94 7 0 48 -27 92 -61z m717 -14 c33 -25 74 -79 74 -98 0 -4 -21 5 -47 20 l-48 28 -207 -1 c-222 0 -241 4 -175 44 28 18 164 63 222 75 29 5 139 -36 181 -68z m514 65 c0 -5 -5 -10 -11 -10 -5 0 -7 5 -4 10 3 6 8 10 11 10 2 0 4 -4 4 -10z m-4526 -8 c3 -5 -1 -9 -9 -9 -8 0 -15 4 -15 9 0 4 4 8 9 8 6 0 12 -4 15 -8z m996 -11 c12 -24 13 -151 1 -170 -8 -12 -20 -4 -58 39 -46 51 -126 100 -165 100 -10 0 -18 4 -18 9 0 7 47 17 170 35 51 7 60 6 70 -13z m175 -8 c-27 -113 -105 -157 -105 -61 0 24 -7 54 -16 66 l-15 22 72 0 71 0 -7 -27z m102 -2 c23 -11 46 -29 53 -40 10 -19 12 -96 2 -86 -3 2 -16 -5 -30 -15 -13 -11 -36 -20 -50 -20 -24 0 -24 1 -9 18 30 33 21 44 -27 37 -55 -9 -63 3 -36 54 11 22 20 47 20 56 0 20 26 19 77 -4z m-1580 -37 c12 -19 12 -22 -2 -27 -10 -4 -20 4 -31 24 -14 29 -14 30 2 27 9 -1 23 -13 31 -24z m5153 -2 c20 -16 21 -21 9 -40 -17 -27 -31 -28 -53 -3 -15 16 -15 22 -4 40 16 26 20 26 48 3z m-4791 -26 c-3 -3 -11 5 -18 17 -13 21 -12 21 5 5 10 -10 16 -20 13 -22z m4412 21 c-6 -8 -8 -17 -4 -20 3 -4 1 -7 -5 -7 -15 0 -15 13 0 28 16 16 23 15 9 -1z m-3667 -23 c55 -20 106 -53 106 -70 0 -11 -17 -14 -79 -14 -88 0 -235 -23 -288 -45 l-35 -15 6 28 c6 26 6 26 -9 8 -8 -11 -15 -26 -15 -33 0 -7 -18 -22 -40 -33 -45 -23 -49 -16 -21 39 33 63 131 138 200 152 44 9 122 1 175 -17z m-777 -10 c-3 -3 -12 -4 -19 -1 -8 3 -5 6 6 6 11 1 17 -2 13 -5z m-287 -33 c13 -26 13 -31 -5 -31 -16 0 -38 34 -28 44 11 11 22 6 33 -13z m4250 -33 c30 -15 66 -35 79 -46 22 -18 22 -20 8 -49 -21 -39 -80 -91 -131 -114 -53 -24 -59 -24 -73 6 -11 24 -9 27 25 44 45 23 91 67 103 99 14 36 10 50 -6 21 -15 -28 -62 -67 -113 -93 l-33 -17 -55 50 c-31 27 -83 64 -116 81 -45 24 -57 35 -47 42 8 5 79 7 159 6 133 -3 150 -6 200 -30z m813 17 c18 -13 18 -14 0 -39 -22 -31 -25 -31 -47 -7 -14 15 -15 24 -6 40 12 24 28 26 53 6z m-4683 -15 c6 -11 7 -20 2 -20 -6 0 -12 9 -15 20 -3 11 -3 20 -1 20 2 0 8 -9 14 -20z m-30 -15 c0 -8 -7 -15 -15 -15 -13 0 -14 3 -3 15 16 18 18 18 18 0z m4287 -10 c0 -8 -4 -12 -9 -9 -5 3 -6 10 -3 15 9 13 12 11 12 -6z m-4572 -55 c-10 -16 -22 -12 -40 16 -13 21 -14 28 -4 34 15 10 54 -34 44 -50z m3707 35 c22 -22 58 -117 58 -153 0 -8 -29 -12 -96 -12 -108 0 -102 -9 -63 93 22 61 46 97 63 97 7 0 25 -11 38 -25z m192 -34 c17 -11 46 -35 65 -55 l34 -35 -54 -15 c-90 -24 -129 -29 -133 -14 -2 7 -14 42 -26 78 -12 36 -24 73 -27 82 -5 16 -1 16 52 -2 31 -11 71 -28 89 -39z m-376 34 c-2 -5 -30 -27 -62 -50 -32 -22 -64 -48 -70 -57 -17 -27 3 -51 58 -69 47 -16 51 -19 44 -41 -6 -17 -139 27 -171 56 -29 27 -36 71 -17 107 15 28 64 49 133 59 73 9 89 8 85 -5z m-2441 -22 c2 -6 -7 -17 -20 -26 -14 -9 -56 -43 -95 -76 -39 -34 -80 -61 -92 -61 -103 0 -216 95 -152 129 26 13 158 40 242 49 76 8 111 4 117 -15z m3856 -1 c13 -14 14 -21 5 -30 -25 -25 -64 0 -52 32 8 21 27 20 47 -2z m-1368 -28 c-18 -96 -56 -126 -106 -85 -30 25 -21 44 45 89 62 41 70 41 61 -4z m-2448 -12 c-9 -10 -27 -38 -40 -62 -25 -47 -79 -79 -112 -66 -23 8 -14 19 78 92 76 60 111 77 74 36z m99 20 c21 -13 74 -106 74 -129 0 -46 -129 -83 -174 -50 -18 13 -18 16 3 73 12 32 34 71 49 87 28 29 31 31 48 19z m3297 -13 c4 -16 3 -19 -5 -11 -9 9 -17 7 -32 -6 -15 -12 -14 -9 3 11 14 15 25 27 27 27 1 0 4 -10 7 -21z m-3094 -70 c59 -60 91 -82 91 -64 0 3 -13 24 -30 47 -36 49 -38 74 -8 84 27 8 68 -35 68 -72 0 -54 -58 -122 -140 -164 -48 -25 -50 -25 -50 -1 0 14 11 23 38 32 47 15 62 27 62 50 0 27 -16 32 -55 18 -44 -16 -55 -6 -80 69 -33 103 3 103 104 1z m-1365 -1 c-10 -16 -30 -7 -47 21 -13 22 -14 30 -5 34 15 6 60 -42 52 -55z m660 -49 c16 -16 50 -41 76 -54 39 -20 47 -28 43 -45 -9 -32 -20 -33 -73 -4 -64 35 -127 88 -145 124 -14 28 -14 30 18 54 l32 26 10 -35 c6 -20 23 -49 39 -66z m4169 83 c13 -14 14 -21 5 -30 -25 -25 -64 0 -52 32 8 21 27 20 47 -2z m-3223 -33 c0 -10 4 -19 9 -19 5 0 11 -9 14 -19 5 -21 4 -21 -86 -36 -37 -6 -38 -6 -26 17 17 33 71 88 81 82 4 -3 8 -14 8 -25z m-1144 -66 c-3 -3 -6 -1 -6 5 0 7 -6 12 -12 12 -7 0 -19 12 -25 27 -12 26 -12 26 19 -5 17 -18 28 -35 24 -39z m3911 30 c-3 -10 -5 -4 -5 12 0 17 2 24 5 18 2 -7 2 -21 0 -30z m-1148 -8 c22 -20 44 -49 50 -65 10 -29 9 -30 -24 -30 -19 0 -57 5 -85 11 -40 8 -50 15 -50 31 0 12 8 22 21 25 14 4 17 8 9 13 -18 11 -2 50 21 50 10 0 37 -16 58 -35z m1559 9 c22 -15 22 -17 6 -35 -21 -23 -32 -24 -56 -2 -17 15 -17 17 -2 35 21 22 24 22 52 2z m-4738 -13 c7 -14 7 -22 -1 -27 -14 -8 -43 21 -35 35 11 17 24 13 36 -8z m357 -3 c-3 -8 -6 -5 -6 6 -1 11 2 17 5 13 3 -3 4 -12 1 -19z m3561 -3 c11 -23 9 -25 -30 -35 -42 -12 -143 -30 -165 -30 -7 0 -13 11 -13 25 0 20 5 25 28 26 15 0 56 8 92 18 36 10 68 19 71 20 3 0 11 -10 17 -24z m359 8 c-4 -3 1 -12 11 -20 15 -13 15 -13 -6 -3 -19 9 -23 30 -5 30 4 0 3 -3 0 -7z m90 -9 c-3 -3 -12 -4 -19 -1 -8 3 -5 6 6 6 11 1 17 -2 13 -5z m-2707 -19 c7 -8 10 -24 7 -35 -3 -12 -1 -17 5 -14 11 7 48 -24 48 -42 0 -10 -142 -74 -165 -74 -22 0 11 95 51 147 28 37 36 40 54 18z m1911 -5 c92 0 99 -1 99 -20 0 -18 -7 -20 -72 -20 -40 0 -96 3 -125 6 -47 6 -51 8 -40 25 7 11 18 17 25 14 8 -3 58 -5 113 -5z m-515 -47 c40 -45 55 -81 52 -123 l-3 -38 -90 29 c-121 39 -121 39 -100 78 13 26 20 31 38 25 19 -6 20 -5 9 9 -10 12 -11 21 -2 37 16 29 61 21 96 -17z m1174 33 c0 -2 -8 -10 -17 -17 -16 -13 -17 -12 -4 4 13 16 21 21 21 13z m456 -27 c3 -6 -2 -20 -13 -30 -17 -17 -21 -18 -38 -5 -17 12 -18 17 -6 40 11 20 18 23 32 16 10 -6 21 -15 25 -21z m-4634 4 c20 -18 24 -43 7 -43 -14 0 -49 43 -42 52 7 12 15 10 35 -9z m453 -12 c3 -5 2 -12 -3 -15 -5 -3 -9 1 -9 9 0 17 3 19 12 6z m433 -74 c-2 -25 -5 -27 -38 -21 -118 19 -140 26 -140 43 0 34 17 37 100 21 78 -15 80 -16 78 -43z m270 21 c-4 -27 -34 -36 -150 -45 -86 -6 -88 -5 -88 16 0 12 6 24 13 26 10 4 144 19 210 24 14 1 18 -5 15 -21z m637 -45 c-6 -24 4 -30 21 -13 7 7 23 -1 50 -25 32 -28 36 -36 24 -44 -22 -15 -104 -31 -157 -31 l-46 0 7 47 c3 26 16 66 27 90 l21 43 29 -22 c21 -17 27 -29 24 -45z m2781 36 c3 -6 0 -18 -9 -26 -11 -12 -19 -13 -36 -4 -23 13 -27 31 -9 49 12 12 41 2 54 -19z m-1855 -21 c12 -23 24 -68 26 -100 l6 -58 -29 0 c-59 1 -194 42 -194 59 0 3 15 18 34 33 23 19 41 26 53 21 15 -6 16 -4 5 9 -11 13 -7 20 25 46 21 17 41 31 45 32 4 0 17 -19 29 -42z m-2655 11 c15 -17 16 -22 4 -29 -18 -11 -56 22 -46 39 10 16 21 14 42 -10z m3998 -7 c2 -4 -4 -8 -14 -8 -10 0 -16 4 -14 8 3 4 9 8 14 8 5 0 11 -4 14 -8z m460 -58 c-1 -4 -9 -13 -17 -18 -25 -16 -55 17 -37 39 11 13 16 14 34 2 12 -8 20 -18 20 -23z m-450 18 c-7 -4 -14 -18 -17 -32 -4 -21 -4 -20 -6 8 -1 24 3 32 17 32 11 0 13 -3 6 -8z m-3934 -53 c0 -16 -27 -9 -46 12 -16 17 -16 22 -4 30 11 6 20 3 33 -12 9 -12 17 -25 17 -30z m2026 4 c3 -16 11 -44 17 -63 l11 -35 9 45 c15 76 10 73 91 68 41 -2 77 -6 80 -9 19 -19 -48 -135 -101 -175 l-35 -26 -39 18 c-47 21 -94 71 -120 128 -30 67 -27 76 31 76 46 0 50 -2 56 -27z m-1519 -15 c-3 -8 -6 -5 -6 6 -1 11 2 17 5 13 3 -3 4 -12 1 -19z m3807 3 c15 -16 15 -19 1 -31 -21 -18 -61 16 -44 37 15 17 23 17 43 -6z m-3838 -29 c-15 -15 -15 -15 -4 10 7 15 15 23 17 17 2 -6 -4 -18 -13 -27z m3305 15 c-10 -9 -11 -8 -5 6 3 10 9 15 12 12 3 -3 0 -11 -7 -18z m-3722 -52 c-6 -6 -17 -1 -32 13 -18 19 -19 24 -8 31 18 11 55 -29 40 -44z m488 39 c-3 -3 -12 -4 -19 -1 -8 3 -5 6 6 6 11 1 17 -2 13 -5z m3290 -10 c-3 -3 -12 -4 -19 -1 -8 3 -5 6 6 6 11 1 17 -2 13 -5z m427 -22 c15 -18 15 -20 -3 -36 -17 -16 -20 -16 -35 -1 -19 20 -20 27 -4 43 16 16 22 15 42 -6z m-4139 -52 c16 -18 17 -20 1 -26 -16 -6 -45 19 -46 39 0 14 27 7 45 -13z m4079 -12 c8 -14 7 -22 -7 -35 -18 -17 -19 -17 -38 6 -15 18 -17 27 -8 38 15 17 38 13 53 -9z m-3579 -6 c-3 -3 -11 0 -18 7 -9 10 -8 11 6 5 10 -3 15 -9 12 -12z m3073 -177 c56 -101 102 -188 102 -194 0 -23 -288 -171 -477 -245 -230 -90 -554 -168 -843 -203 -197 -23 -565 -23 -745 1 -361 48 -654 136 -940 281 -193 98 -309 170 -299 188 34 56 208 334 214 340 4 5 75 -25 157 -65 351 -174 751 -279 1173 -307 437 -29 1012 106 1445 338 50 27 95 49 100 49 6 1 56 -81 113 -183z m439 129 c11 -18 11 -23 -5 -37 -17 -16 -20 -15 -41 4 -21 20 -22 22 -5 40 20 23 32 21 51 -7z m-3947 1 c22 -26 -4 -43 -30 -20 -20 18 -18 35 4 35 8 0 19 -7 26 -15z m81 -88 c-5 -5 -19 -2 -35 8 -21 14 -24 20 -15 32 10 11 16 10 36 -9 14 -13 20 -25 14 -31z m3799 28 c10 -13 10 -19 -5 -35 -22 -25 -41 -25 -54 -3 -7 13 -5 23 6 35 20 22 37 23 53 3z m-3740 -60 c19 -23 1 -39 -21 -19 -10 9 -16 21 -13 25 8 13 20 11 34 -6z m3656 -6 c18 -20 18 -21 -1 -35 -22 -16 -34 -14 -49 8 -7 12 -6 21 3 32 18 21 24 20 47 -5z m-3566 -71 c0 -17 -22 -18 -45 0 -33 26 -13 49 21 24 13 -9 24 -20 24 -24z m3490 21 c9 -15 8 -24 -1 -35 -16 -20 -26 -18 -40 8 -10 18 -8 24 7 35 23 17 21 17 34 -8z m-64 -87 c-8 -8 -22 -12 -30 -9 -26 10 -31 36 -10 52 17 13 21 12 37 -7 16 -19 16 -23 3 -36z m-3355 5 c-16 -16 -64 12 -50 29 9 11 15 10 35 -3 17 -11 22 -19 15 -26z"/>
<path d="M3490 5949 c-100 -18 -194 -50 -305 -106 -153 -77 -214 -120 -255 -179 -19 -28 -57 -79 -83 -115 -45 -60 -118 -196 -132 -246 -5 -18 -2 -23 13 -23 11 0 22 -6 25 -12 3 -10 11 -10 39 0 25 8 118 12 329 12 292 -1 294 -1 271 -20 -22 -18 -205 -129 -478 -288 -297 -174 -471 -355 -517 -538 -16 -64 -7 -209 17 -281 9 -27 32 -68 51 -91 19 -22 35 -45 35 -51 0 -6 -24 -23 -52 -38 l-53 -27 79 -8 c43 -5 124 -17 179 -28 55 -11 102 -18 104 -16 2 2 -1 15 -7 30 -5 15 -10 48 -10 74 0 62 -9 73 -62 79 -42 5 -47 3 -67 -26 -74 -104 -181 59 -182 276 -1 144 93 300 261 436 96 77 138 104 351 223 210 117 484 300 550 367 86 87 127 203 95 265 -26 50 -59 66 -135 66 -83 -1 -119 -19 -191 -93 -100 -104 -287 -177 -305 -121 -10 31 19 67 77 98 60 32 88 56 88 77 0 10 -9 14 -31 11 -21 -2 -45 -19 -77 -54 -51 -55 -82 -68 -137 -58 -31 6 -35 11 -35 37 0 65 56 125 180 192 180 99 461 125 616 57 53 -23 111 -81 138 -139 32 -71 30 -207 -5 -281 -56 -119 -189 -245 -471 -445 -234 -167 -327 -271 -361 -405 -17 -65 -8 -122 23 -156 32 -33 44 -30 35 9 -17 80 -17 145 1 178 44 87 134 163 256 218 100 45 156 54 292 48 215 -10 389 -71 811 -287 382 -196 603 -281 804 -310 184 -27 431 2 563 65 29 14 53 23 56 21 7 -8 -29 -73 -54 -97 -13 -12 -24 -31 -24 -41 0 -22 -35 -95 -59 -122 -15 -17 -15 -18 19 -4 37 15 67 56 72 100 2 15 11 35 20 45 30 34 59 105 69 166 13 81 2 89 -52 35 -49 -48 -110 -80 -202 -106 -79 -22 -367 -24 -472 -3 -172 33 -338 99 -688 276 -448 225 -643 301 -822 320 -79 9 -208 -8 -295 -39 -39 -13 -70 -23 -70 -21 0 2 57 45 128 96 176 128 298 223 359 281 l52 48 370 0 c290 0 371 3 371 13 0 6 -22 57 -50 112 -129 261 -364 451 -649 527 -88 23 -322 33 -411 17z m-568 -513 c-34 -44 -132 -149 -132 -143 0 10 45 81 87 140 28 38 38 45 49 36 12 -9 11 -15 -4 -33z"/>
<path d="M3515 4644 c-11 -2 -45 -9 -75 -15 -121 -25 -225 -103 -260 -197 -11 -29 -20 -62 -20 -73 0 -11 -19 -40 -42 -66 -50 -53 -25 -44 45 17 34 30 47 49 47 68 0 64 101 164 197 196 82 27 179 36 289 26 154 -14 250 -41 614 -177 92 -34 158 -58 340 -121 225 -79 600 -133 800 -116 l95 8 -165 7 c-312 12 -572 75 -1005 244 -188 73 -429 149 -558 176 -92 18 -264 32 -302 23z"/>
<path d="M6088 4263 c7 -3 16 -2 19 1 4 3 -2 6 -13 5 -11 0 -14 -3 -6 -6z"/>
<path d="M6088 4053 c7 -3 16 -2 19 1 4 3 -2 6 -13 5 -11 0 -14 -3 -6 -6z"/>
<path d="M1988 6573 c-12 -3 -18 -14 -18 -34 0 -27 2 -29 40 -29 39 0 40 1 40 35 0 36 -11 41 -62 28z"/>
<path d="M1957 6453 c-4 -3 -7 -11 -7 -17 0 -6 5 -5 12 2 6 6 9 14 7 17 -3 3 -9 2 -12 -2z"/>
<path d="M1648 6213 c-21 -5 -35 -50 -21 -64 19 -19 43 2 43 37 0 19 -1 33 -2 33 -2 -1 -11 -3 -20 -6z"/>
<path d="M1326 5851 c-4 -5 -2 -19 2 -31 7 -19 10 -20 20 -7 7 8 10 22 6 31 -7 18 -20 21 -28 7z"/>
<path d="M1277 5739 c-15 -9 -26 -69 -11 -69 17 0 44 23 44 38 0 29 -13 42 -33 31z"/>
<path d="M1046 5297 c-14 -10 -17 -20 -11 -45 7 -36 13 -38 40 -18 18 13 18 16 5 45 -14 29 -17 30 -34 18z"/>
<path d="M1006 5141 c-12 -13 -15 -27 -10 -45 7 -31 11 -31 44 -7 21 17 23 22 12 45 -14 31 -23 32 -46 7z"/>
<path d="M966 4995 c-16 -12 -18 -20 -10 -42 12 -34 23 -37 53 -14 24 18 24 20 8 45 -20 30 -25 31 -51 11z"/>
<path d="M936 4841 c-19 -21 -15 -51 10 -72 13 -10 19 -8 40 12 l25 25 -21 27 c-25 32 -31 33 -54 8z"/>
<path d="M935 4686 c-16 -24 -16 -28 -1 -51 20 -30 28 -31 49 -7 23 25 21 34 -7 61 l-24 23 -17 -26z"/>
<path d="M927 4532 c-36 -40 -8 -83 33 -52 21 16 23 21 12 44 -14 31 -23 32 -45 8z"/>
<path d="M917 4392 c-23 -25 -21 -44 6 -70 22 -21 24 -21 39 -5 28 33 27 40 -1 67 -27 26 -28 26 -44 8z"/>
<path d="M996 4355 c-11 -41 -7 -47 19 -28 13 10 25 25 25 33 0 23 -38 19 -44 -5z"/>
<path d="M932 4238 c-16 -16 -15 -40 2 -64 15 -19 16 -18 43 9 l28 28 -24 20 c-27 22 -33 23 -49 7z"/>
<path d="M1024 3415 c-6 -24 9 -55 26 -55 4 0 12 12 19 26 9 20 9 30 0 40 -18 22 -38 17 -45 -11z"/>
<path d="M1154 3166 c-3 -7 -6 -25 -7 -41 -2 -23 4 -32 27 -43 34 -17 46 -6 46 45 0 26 -5 33 -30 42 -24 8 -32 7 -36 -3z"/>
<path d="M1239 3001 c-20 -16 -22 -23 -13 -38 10 -17 62 -48 69 -41 2 1 6 24 10 51 7 45 6 47 -18 47 -14 0 -35 -9 -48 -19z"/>
<path d="M1324 2856 c-9 -36 0 -52 32 -60 33 -9 45 6 42 49 -3 26 -7 30 -35 33 -28 3 -33 -1 -39 -22z"/>
<path d="M1425 2752 c-12 -13 -4 -70 11 -76 37 -14 54 -7 54 24 0 17 0 33 0 38 1 9 -57 22 -65 14z"/>
<path d="M1522 2603 c3 -36 5 -38 37 -36 37 1 53 17 49 48 -2 16 -12 21 -46 23 l-43 3 3 -38z"/>
<path d="M1630 2401 c0 -29 3 -31 36 -31 33 0 35 2 32 28 -2 22 -8 28 -35 30 -31 3 -33 1 -33 -27z"/>
<path d="M1740 2322 c-27 -22 -19 -42 16 -42 20 0 24 5 24 30 0 35 -9 37 -40 12z"/>
<path d="M1832 2234 c-30 -21 -28 -52 4 -64 40 -16 44 -13 44 35 0 49 -10 56 -48 29z"/>
<path d="M2054 2127 c-36 -32 -27 -57 21 -57 34 0 35 1 35 40 0 47 -15 52 -56 17z"/>
<path d="M1943 2132 c-28 -3 -33 -7 -33 -30 0 -41 13 -54 51 -50 31 3 34 6 37 39 3 40 -5 46 -55 41z"/>
<path d="M2151 2041 c-16 -10 -6 -51 14 -51 13 0 25 21 25 46 0 16 -18 18 -39 5z"/>
<path d="M2052 2014 c-28 -20 -28 -30 2 -38 35 -9 56 3 56 30 0 28 -24 32 -58 8z"/>
<path d="M2140 1915 c0 -40 17 -46 45 -15 22 25 13 50 -20 50 -22 0 -25 -4 -25 -35z"/>
<path d="M6172 2843 c3 -35 6 -38 33 -38 27 0 30 3 33 38 3 37 3 37 -33 37 -36 0 -36 0 -33 -37z"/>
<path d="M6072 2723 c3 -36 5 -38 38 -38 33 0 35 2 31 30 -4 41 -8 45 -42 45 -29 0 -30 -2 -27 -37z"/>
<path d="M5770 2314 c0 -30 3 -34 25 -34 47 0 42 51 -5 63 -17 4 -20 0 -20 -29z"/>
<path d="M5670 2210 c0 -35 3 -40 23 -40 25 0 47 17 47 36 0 19 -29 44 -51 44 -16 0 -19 -7 -19 -40z"/>
<path d="M5352 2038 c-9 -9 -8 -16 5 -30 25 -27 43 -22 43 12 0 22 -5 30 -18 30 -10 0 -23 -5 -30 -12z"/>
<path d="M5430 2017 c0 -29 18 -47 46 -47 39 0 39 54 1 64 -38 10 -47 7 -47 -17z"/>
<path d="M4860 1785 c-296 -138 -617 -215 -1005 -241 -60 -4 -102 -9 -92 -11 10 -3 17 -14 17 -26 0 -44 12 -66 41 -76 36 -13 36 -17 -1 -36 -16 -9 -30 -20 -30 -25 0 -18 41 -10 78 15 l37 25 9 -39 c5 -22 15 -42 23 -45 11 -5 13 3 9 37 -3 23 -8 70 -11 104 l-6 61 51 6 c165 20 150 20 150 -6 0 -22 -4 -23 -71 -25 -92 -3 -114 -10 -98 -29 8 -10 22 -13 41 -9 22 5 28 3 28 -9 0 -25 58 -56 92 -49 23 5 28 2 28 -15 0 -18 26 -50 34 -41 2 2 -3 48 -11 102 -8 55 -13 100 -11 102 2 1 17 5 34 8 l32 6 17 -89 c15 -76 36 -124 49 -109 2 2 -5 47 -15 99 -10 52 -15 97 -11 101 16 13 116 29 125 20 16 -16 1 -38 -31 -44 -34 -7 -62 -31 -62 -53 0 -9 13 -29 29 -45 23 -23 38 -29 73 -29 50 0 64 -7 69 -35 5 -23 39 -34 39 -11 0 8 -12 24 -26 35 -18 14 -24 26 -20 39 8 23 -16 45 -41 40 -11 -2 -17 -12 -16 -25 3 -28 -24 -37 -53 -18 -40 26 -24 69 28 80 49 11 59 22 47 52 -5 14 -8 27 -6 29 8 9 96 31 101 26 13 -12 5 -42 -14 -52 -28 -15 -25 -23 19 -48 45 -26 70 -28 96 -8 18 13 21 11 37 -15 10 -16 24 -29 32 -29 11 0 6 22 -20 91 -40 107 -39 105 -16 112 9 2 24 8 33 11 13 6 23 -11 49 -80 30 -77 51 -106 66 -92 2 3 -12 45 -32 93 -43 102 -47 95 66 140 60 24 73 27 81 14 14 -23 11 -27 -31 -49 -48 -24 -65 -52 -50 -80 13 -24 81 -60 112 -59 16 0 10 5 -20 16 -75 26 -79 73 -10 109 27 14 28 14 53 -35 15 -30 21 -52 15 -56 -16 -10 -11 -23 11 -30 13 -4 27 -1 39 10 15 14 30 16 86 10 46 -5 65 -4 60 3 -3 6 -39 13 -79 17 l-74 7 -44 85 c-27 52 -40 87 -33 90 6 2 20 10 30 18 38 29 -11 13 -126 -40z m-238 -166 c11 -40 11 -43 -16 -65 -29 -25 -60 -31 -71 -13 -4 6 1 16 11 24 16 11 16 17 6 39 -16 35 -16 35 11 46 38 15 46 11 59 -31z m-718 -125 c8 -41 -6 -64 -39 -64 -26 0 -41 15 -50 52 -10 37 0 48 44 48 36 0 39 -2 45 -36z m236 -18 c0 -22 -29 -46 -56 -46 -29 0 -34 33 -6 49 25 15 62 13 62 -3z"/>
<path d="M2530 1821 c0 -4 27 -20 60 -34 57 -25 59 -27 49 -51 l-11 -24 -42 19 c-48 22 -77 24 -94 7 -16 -16 -15 -97 3 -128 17 -29 20 -13 5 26 -22 58 17 94 75 70 19 -8 35 -18 35 -21 0 -3 -9 -24 -21 -47 -16 -31 -18 -46 -11 -62 9 -18 15 -10 53 72 24 50 48 92 54 92 6 0 40 -12 76 -26 35 -15 74 -30 86 -35 22 -8 23 -9 6 -44 -9 -19 -20 -35 -23 -35 -4 0 -13 14 -21 32 -10 22 -27 36 -59 48 -54 21 -70 17 -70 -20 0 -35 27 -61 41 -39 5 8 9 17 9 22 0 4 9 7 19 7 23 0 69 -35 59 -46 -4 -4 -36 -10 -70 -13 -68 -6 -84 -24 -53 -55 22 -21 42 -20 48 3 3 12 16 20 38 23 46 7 50 3 34 -35 -8 -20 -10 -39 -5 -47 11 -18 9 -21 55 83 21 48 42 90 46 92 4 3 20 0 37 -6 l30 -10 -28 -88 c-21 -67 -25 -93 -17 -107 9 -16 16 -2 42 81 28 89 34 100 53 98 56 -6 10 17 -115 59 -76 25 -189 69 -251 97 -124 56 -122 55 -122 42z"/>
<path d="M2870 1820 c0 -17 39 -50 59 -50 13 0 26 -15 40 -46 12 -25 24 -44 27 -42 8 9 -35 98 -60 123 -25 25 -66 34 -66 15z"/>
<path d="M4030 1680 c0 -17 42 -32 73 -26 25 5 40 0 74 -24 24 -17 43 -27 43 -21 0 20 -114 81 -152 81 -21 0 -38 -4 -38 -10z"/>
<path d="M3291 1657 c-11 -15 -6 -47 9 -47 4 0 13 7 20 16 11 12 11 18 -2 30 -13 13 -16 13 -27 1z"/>
<path d="M3146 1603 c-4 -5 13 -13 39 -18 57 -13 55 -31 -3 -27 -46 3 -65 -16 -42 -42 9 -12 7 -17 -9 -26 -30 -15 -27 -56 7 -87 32 -30 119 -76 134 -71 6 2 -19 19 -56 37 -50 24 -68 39 -72 58 -5 19 -2 30 11 40 19 13 67 18 78 7 12 -12 -14 -44 -36 -44 -20 -1 -19 -2 7 -17 27 -14 30 -14 42 2 9 12 10 24 3 43 -13 33 -26 42 -61 42 -19 0 -28 5 -28 16 0 14 8 16 50 10 45 -6 50 -5 50 13 0 27 9 30 58 21 53 -9 58 -14 44 -44 -8 -18 -16 -23 -31 -19 -17 4 -21 1 -21 -18 0 -25 51 -123 70 -134 23 -14 20 4 -6 34 -24 29 -25 35 -14 57 16 28 19 29 56 9 16 -8 36 -15 45 -15 12 0 15 -11 15 -47 -1 -78 19 -60 33 29 16 110 19 118 42 118 10 0 19 4 19 9 0 5 -35 12 -77 16 -76 6 -292 40 -324 50 -8 3 -19 2 -23 -2z m315 -63 c29 0 30 -2 27 -37 -3 -38 -3 -38 -46 -37 -23 0 -45 4 -48 7 -4 3 -3 22 0 42 5 27 11 35 22 31 9 -3 29 -6 45 -6z"/>
<path d="M3600 1506 c-10 -13 -10 -19 0 -32 12 -14 15 -14 29 0 14 15 14 17 0 32 -14 14 -17 14 -29 0z"/>
<path d="M3593 1404 c-9 -23 13 -40 32 -24 12 10 13 16 4 26 -15 18 -28 18 -36 -2z"/>
<path d="M435 2722 c-99 -46 -130 -96 -151 -240 -23 -158 -58 -265 -129 -392 -83 -149 -97 -188 -98 -285 -2 -73 1 -87 34 -155 l35 -75 -22 -40 c-66 -116 -112 -336 -100 -484 11 -142 59 -301 91 -301 8 0 30 31 51 70 32 61 110 150 131 150 5 0 19 -37 32 -83 39 -128 120 -282 190 -359 70 -76 150 -131 183 -126 22 3 23 8 30 123 5 66 15 161 23 210 16 91 55 195 74 195 6 0 48 -27 94 -59 382 -271 887 -509 1392 -655 1034 -298 2125 -282 3135 46 437 141 804 317 1164 555 158 106 171 112 187 97 39 -35 72 -191 84 -397 7 -106 10 -117 27 -117 68 0 207 128 279 258 26 45 64 134 85 197 21 63 43 115 47 115 19 0 105 -100 135 -157 18 -35 40 -63 48 -63 37 0 86 201 87 355 0 153 -30 289 -94 416 l-28 57 31 58 c27 50 33 72 36 144 5 106 -13 164 -98 316 -68 122 -93 194 -115 328 -33 194 -52 236 -132 283 -41 24 -59 28 -123 28 -110 0 -187 -40 -301 -155 -151 -151 -209 -309 -214 -575 l-2 -150 -69 -63 c-501 -458 -1233 -798 -1974 -916 -290 -47 -351 -51 -710 -51 -379 1 -522 14 -830 76 -716 143 -1384 469 -1844 900 l-69 64 6 70 c14 157 -25 352 -96 489 -55 107 -172 226 -271 276 -86 43 -178 52 -241 22z m21 -115 c0 -51 7 -75 36 -132 163 -320 535 -718 924 -991 541 -379 1215 -621 1949 -700 218 -23 632 -23 850 0 1113 120 2078 619 2668 1381 168 217 241 353 242 447 0 32 2 58 3 58 12 0 62 -43 76 -65 10 -15 26 -79 37 -143 34 -201 50 -248 151 -432 56 -101 83 -195 75 -261 -15 -129 -166 -324 -412 -537 -745 -641 -1624 -1017 -2678 -1143 -221 -27 -714 -37 -949 -20 -977 71 -1863 383 -2581 908 -365 266 -614 509 -704 687 -34 67 -41 153 -18 232 9 32 45 111 80 174 75 136 100 205 122 343 25 158 31 178 73 219 21 21 42 38 46 38 5 0 9 -28 10 -63z m454 -234 c46 -92 71 -202 77 -338 l5 -120 -62 60 c-91 88 -300 356 -300 384 0 3 48 32 108 63 l107 57 17 -22 c10 -12 31 -50 48 -84z m5904 30 c50 -31 95 -60 100 -64 15 -13 -157 -246 -268 -364 l-57 -60 5 130 c5 149 27 240 83 347 19 38 38 68 41 68 3 0 46 -25 96 -57z m-6446 -1284 c158 -78 306 -150 328 -160 l42 -19 -23 -68 c-24 -69 -54 -245 -56 -323 -1 -92 -8 -93 -97 -2 -67 68 -89 98 -131 185 -28 56 -63 149 -77 205 -16 59 -33 104 -41 107 -32 13 -131 -63 -186 -143 l-31 -45 -13 49 c-25 89 -29 355 -7 355 3 0 134 -63 292 -141z m7148 64 c11 -77 -4 -230 -32 -312 -3 -8 -19 7 -44 42 -36 51 -112 116 -151 129 -28 10 -40 -7 -60 -88 -53 -204 -172 -405 -276 -466 l-30 -17 -6 94 c-8 120 -42 286 -71 346 l-22 47 330 135 c182 74 336 135 343 136 7 1 15 -19 19 -46z"/>
<path d="M6243 1343 c-7 -2 -13 -9 -13 -14 0 -5 32 -57 71 -115 39 -58 69 -108 67 -110 -3 -2 -56 19 -119 47 -191 85 -176 80 -199 61 -20 -17 -19 -19 76 -162 53 -80 98 -147 101 -149 2 -3 11 3 20 12 15 15 11 24 -60 131 -59 89 -72 113 -54 107 12 -5 80 -34 150 -65 70 -31 131 -56 135 -56 5 0 16 6 26 13 17 12 11 24 -78 160 -53 81 -99 147 -103 146 -5 0 -14 -3 -20 -6z"/>
<path d="M1211 1191 c-50 -82 -91 -153 -91 -159 0 -8 22 -22 35 -22 2 0 20 27 40 60 20 33 42 60 48 60 21 -1 107 -70 107 -85 0 -9 -8 -32 -19 -53 -32 -64 -34 -78 -9 -89 20 -9 24 -5 51 51 16 34 29 73 29 88 -1 20 5 28 24 32 31 8 64 61 64 102 0 37 -29 66 -122 122 l-67 41 -90 -148z m177 44 c37 -25 52 -42 52 -58 0 -32 -27 -67 -53 -67 -20 0 -127 55 -127 65 0 13 56 95 65 95 6 0 34 -16 63 -35z"/>
<path d="M1501 1007 c-136 -126 -140 -132 -119 -143 21 -12 27 -9 64 27 l41 41 63 -32 63 -32 -6 -57 c-6 -55 -5 -59 18 -69 19 -9 25 -9 25 1 0 6 9 91 20 187 11 96 20 178 20 181 0 3 -11 11 -24 17 -23 10 -34 2 -165 -121z m130 -12 c-5 -37 -12 -69 -14 -72 -3 -2 -26 6 -52 19 l-47 23 58 52 c33 28 60 50 62 49 1 -2 -2 -33 -7 -71z"/>
<path d="M5875 1111 c-22 -10 -53 -33 -70 -50 -27 -29 -30 -39 -30 -100 0 -58 4 -75 30 -117 54 -87 133 -116 218 -80 43 18 95 78 102 119 15 76 -47 195 -118 227 -53 24 -81 25 -132 1z m114 -47 c55 -32 99 -127 86 -184 -8 -35 -53 -76 -94 -85 -70 -15 -150 64 -159 156 -5 55 8 83 51 109 39 24 80 25 116 4z"/>
<path d="M1751 883 c-40 -91 -70 -167 -69 -168 2 -2 12 -5 22 -7 17 -2 29 18 75 125 30 70 55 126 57 125 1 -2 -4 -68 -12 -148 -7 -79 -10 -147 -6 -151 22 -22 44 -7 131 89 51 56 95 101 97 99 2 -2 -19 -57 -47 -122 -49 -112 -50 -119 -33 -132 16 -12 20 -10 32 13 16 31 132 301 132 307 0 3 -14 10 -32 16 -25 9 -35 8 -43 -1 -93 -106 -189 -208 -192 -204 -4 4 14 235 22 272 3 16 -4 24 -29 37 l-34 16 -71 -166z"/>
<path d="M5653 993 c-7 -2 -13 -9 -13 -15 0 -22 134 -318 144 -318 40 1 36 18 -33 176 -38 87 -73 159 -78 160 -4 1 -14 0 -20 -3z"/>
<path d="M5445 910 c-75 -37 -95 -105 -48 -161 l27 -32 84 6 c91 7 127 -1 134 -30 19 -73 -101 -125 -158 -68 -17 17 -32 24 -45 20 -24 -8 -24 -16 2 -48 29 -38 83 -52 139 -37 103 28 144 127 80 192 -30 30 -30 30 -114 23 -99 -8 -126 1 -126 45 0 33 27 56 76 66 23 4 37 0 60 -18 28 -23 64 -27 64 -6 0 5 -13 23 -29 39 -36 35 -86 39 -146 9z"/>
<path d="M2146 723 c-112 -140 -116 -148 -94 -156 23 -8 40 4 80 62 l14 20 67 -21 67 -22 0 -57 c0 -56 8 -69 42 -69 8 0 9 57 5 187 -6 191 -9 202 -48 203 -8 0 -68 -66 -133 -147z m134 8 l0 -80 -47 16 c-27 9 -50 17 -52 19 -3 3 89 124 95 124 2 0 4 -36 4 -79z"/>
<path d="M5179 821 c-45 -14 -68 -31 -84 -61 -18 -35 -19 -60 -4 -93 16 -35 50 -47 132 -47 50 0 80 -5 95 -16 52 -36 -1 -109 -79 -109 -32 0 -46 6 -65 28 -38 44 -73 34 -48 -14 60 -116 284 -44 260 83 -11 59 -34 72 -143 78 -75 4 -97 9 -108 23 -30 41 13 87 82 87 34 0 46 -5 58 -24 11 -16 22 -22 35 -19 24 6 25 16 4 48 -24 37 -80 52 -135 36z"/>
<path d="M2445 788 c-3 -13 -21 -90 -41 -172 -19 -81 -34 -149 -32 -151 2 -1 12 -5 24 -9 19 -6 22 0 34 55 11 51 18 64 44 80 17 10 33 19 36 19 3 0 22 -45 43 -100 32 -83 43 -101 63 -106 14 -4 27 -5 29 -3 2 2 -17 53 -41 114 -24 60 -44 114 -44 120 0 5 39 33 86 62 86 51 86 51 54 58 -28 6 -45 -1 -132 -54 -55 -34 -102 -60 -104 -59 -2 2 5 37 16 78 10 40 17 77 14 82 -11 17 -44 8 -49 -14z"/>
<path d="M4965 750 c-4 -6 10 -87 31 -180 36 -159 39 -170 59 -164 11 4 21 8 23 9 2 2 -14 80 -35 174 -31 139 -41 171 -55 171 -9 0 -20 -5 -23 -10z"/>
<path d="M2717 603 c-44 -234 -44 -223 -15 -223 24 0 26 5 37 74 l12 75 37 -6 c20 -3 53 -11 72 -17 l35 -11 0 -75 c0 -73 1 -75 25 -78 25 -3 25 -1 28 74 2 48 -2 81 -9 90 -10 12 -8 18 9 29 31 23 47 79 32 116 -16 37 -48 54 -130 69 -36 6 -74 14 -86 16 -20 5 -23 -3 -47 -133z m165 66 c47 -12 61 -36 47 -78 -14 -39 -40 -46 -114 -31 -51 11 -56 14 -52 33 3 12 9 39 12 59 8 41 10 41 107 17z"/>
<path d="M4843 723 c-6 -5 -22 -75 -34 -156 -27 -173 -19 -173 -110 5 l-59 117 -33 -6 c-17 -3 -33 -7 -35 -8 -3 -3 37 -243 54 -327 6 -30 11 -33 33 -19 11 7 10 30 -8 136 -12 70 -20 129 -18 131 2 2 32 -51 68 -119 54 -102 69 -122 90 -125 25 -3 26 -2 49 148 12 83 24 149 26 147 2 -1 13 -63 25 -136 15 -88 27 -135 36 -138 34 -13 35 15 6 184 -28 162 -30 168 -54 171 -13 1 -29 -1 -36 -5z"/>
<path d="M3056 658 c-9 -40 -46 -295 -46 -317 0 -15 6 -21 23 -21 22 0 24 7 46 168 13 92 24 171 25 177 1 5 -9 11 -21 13 -17 2 -24 -3 -27 -20z"/>
<path d="M3208 644 c-34 -18 -48 -43 -48 -86 0 -48 15 -63 102 -102 81 -37 101 -58 88 -92 -12 -30 -26 -37 -77 -36 -51 0 -93 31 -93 68 0 15 -7 23 -26 27 -26 5 -26 4 -21 -37 10 -73 96 -121 185 -102 47 11 85 58 85 106 0 53 -18 71 -103 104 -62 25 -100 54 -100 78 0 5 9 17 20 28 40 40 134 12 142 -43 2 -14 11 -23 26 -25 18 -3 22 1 22 25 0 80 -121 132 -202 87z"/>
<path d="M4235 628 c-2 -7 -26 -91 -54 -186 l-49 -173 27 3 c22 3 28 11 40 54 12 48 16 52 50 58 20 3 52 6 72 6 34 0 38 -3 57 -50 17 -42 25 -50 46 -50 15 0 26 3 26 8 0 4 -35 81 -78 172 -70 149 -80 165 -105 168 -16 2 -29 -2 -32 -10z m69 -120 c14 -35 26 -66 26 -70 0 -5 -22 -8 -50 -8 -27 0 -50 2 -50 5 0 20 34 135 40 135 4 0 19 -28 34 -62z"/>
<path d="M3466 568 c-3 -35 -7 -115 -8 -178 -3 -110 -2 -115 18 -118 18 -3 22 4 28 44 3 26 6 64 6 85 0 44 2 45 119 33 l61 -7 0 -83 c0 -81 1 -84 23 -84 23 0 24 2 30 128 4 70 7 151 7 180 0 49 -2 52 -25 52 -24 0 -25 -2 -25 -70 l0 -70 -96 0 -97 0 7 75 c7 75 7 75 -17 75 -23 0 -25 -5 -31 -62z"/>
<path d="M3818 471 c-1 -83 -2 -163 -2 -178 -1 -22 4 -29 21 -31 22 -3 22 -2 25 139 l3 143 90 -142 c80 -127 93 -142 117 -142 l28 0 0 181 0 180 -22 -3 c-22 -3 -23 -7 -28 -138 l-5 -135 -85 135 c-72 114 -90 135 -113 138 l-27 3 -2 -150z"/>
</g>
</svg>